<svg width="32" height="33" viewBox="0 0 32 33" fill="none" xmlns="http://www.w3.org/2000/svg">
<g clip-path="url(#clip0_367_6320)">
<path d="M19.164 11.7376L11.3688 13.4336L1.6248 15.4536C0.648799 15.696 -5.93667e-07 16.504 -5.93667e-07 17.4736V30.48C-0.00193592 30.7467 0.0493375 31.0111 0.150819 31.2577C0.252301 31.5043 0.401954 31.7283 0.591019 31.9163C0.780085 32.1044 1.00477 32.2529 1.25192 32.3532C1.49907 32.4534 1.76372 32.5033 2.0304 32.5H21.6V13.7568C21.6033 13.4536 21.5388 13.1535 21.4113 12.8785C21.2838 12.6034 21.0966 12.3602 20.8631 12.1667C20.6297 11.9732 20.356 11.8343 20.0621 11.7601C19.7681 11.6858 19.4613 11.6781 19.164 11.7376Z" fill="url(#paint0_linear_367_6320)"/>
<path d="M29.4824 0.536814L12.024 4.22161C11.0496 4.46161 10.4 5.26321 10.4 6.22481V32.5H29.9696C31.1064 32.34 32 31.4584 32 30.3368V2.54001C32 1.25761 30.7816 0.296814 29.4824 0.536814Z" fill="url(#paint1_linear_367_6320)"/>
<path d="M19.164 11.7376C19.4612 11.6782 19.768 11.6858 20.0619 11.76C20.3558 11.8342 20.6294 11.9731 20.8628 12.1665C21.0962 12.3599 21.2835 12.6029 21.4111 12.8779C21.5386 13.1529 21.6031 13.4529 21.6 13.756V32.5H10.4V13.6344L11.368 13.4344L19.164 11.7376Z" fill="url(#paint2_linear_367_6320)"/>
</g>
<defs>
<linearGradient id="paint0_linear_367_6320" x1="10.8184" y1="29.5776" x2="10.8184" y2="15.0688" gradientUnits="userSpaceOnUse">
<stop stop-color="#00D0E1"/>
<stop offset="1" stop-color="#00F5E7"/>
</linearGradient>
<linearGradient id="paint1_linear_367_6320" x1="21.1672" y1="0.498414" x2="21.1672" y2="32.5" gradientUnits="userSpaceOnUse">
<stop stop-color="#00D924"/>
<stop offset="1" stop-color="#00D924"/>
</linearGradient>
<linearGradient id="paint2_linear_367_6320" x1="15.944" y1="32.5024" x2="15.944" y2="11.6976" gradientUnits="userSpaceOnUse">
<stop stop-color="#00D722"/>
<stop offset="0.851" stop-color="#00BD01"/>
</linearGradient>
<clipPath id="clip0_367_6320">
<rect width="32" height="32" fill="white" transform="translate(0 0.5)"/>
</clipPath>
</defs>
</svg>
