<svg width="20" height="20" viewBox="0 0 20 20" fill="none" xmlns="http://www.w3.org/2000/svg">
<path d="M18.045 15.355C18.2335 15.244 18.3865 15.087 18.493 14.9035L10.625 10.361C10.435 10.2513 10.2772 10.0935 10.1675 9.90346C10.0578 9.71345 10 9.4979 10 9.27848V0.193481C9.78453 0.193481 9.56853 0.248981 9.37503 0.360981L1.96503 4.63898C1.77501 4.74869 1.61721 4.90648 1.5075 5.0965C1.39779 5.28652 1.34003 5.50207 1.34003 5.72148V14.2785C1.34003 14.4979 1.39779 14.7134 1.5075 14.9035C1.61721 15.0935 1.77501 15.2513 1.96503 15.361L9.37503 19.639C9.56505 19.7487 9.78061 19.8064 10 19.8064C10.2194 19.8064 10.435 19.7487 10.625 19.639L18.045 15.3555V15.355Z" fill="url(#paint0_linear_367_6689)"/>
<path d="M18.035 4.63897C18.225 4.74867 18.3828 4.90647 18.4925 5.09648C18.6022 5.2865 18.66 5.50205 18.66 5.72147V14.29C18.6581 14.5062 18.6001 14.7181 18.4918 14.9053C18.3835 15.0924 18.2285 15.2482 18.042 15.3575L18.0355 15.3615L14.33 17.5L6.29498 12.861C6.10496 12.7513 5.94717 12.5935 5.83746 12.4034C5.72775 12.2134 5.66999 11.9979 5.66998 11.7785V2.49997L9.37498 0.360965C9.56388 0.251848 9.77805 0.194068 9.9962 0.193366C10.2144 0.192664 10.4289 0.249066 10.6185 0.356965L18.035 4.63897Z" fill="#0073E6"/>
<path d="M9.99998 0.193481C9.78074 0.193626 9.56537 0.251388 9.37548 0.360981L5.66998 2.49998V11.7785C5.66999 11.9979 5.72775 12.2134 5.83746 12.4035C5.94717 12.5935 6.10496 12.7513 6.29498 12.861L14.33 17.5L18.042 15.357L18.0445 15.3555L18.0775 15.3355C18.2515 15.2255 18.3925 15.0765 18.4925 14.9035L10.625 10.361C10.435 10.2513 10.2772 10.0935 10.1675 9.90346C10.0577 9.71345 9.99999 9.4979 9.99998 9.27848V0.193481Z" fill="url(#paint1_linear_367_6689)"/>
<defs>
<linearGradient id="paint0_linear_367_6689" x1="5.25003" y1="5.24998" x2="5.25003" y2="18.25" gradientUnits="userSpaceOnUse">
<stop stop-color="#11EFE3"/>
<stop offset="1" stop-color="#21CFE0"/>
</linearGradient>
<linearGradient id="paint1_linear_367_6689" x1="9.99998" y1="-9.00002" x2="10.2705" y2="19.997" gradientUnits="userSpaceOnUse">
<stop offset="0.431" stop-color="#016BDE"/>
<stop offset="1" stop-color="#012A9D"/>
</linearGradient>
</defs>
</svg>
