<svg width="48" height="46" viewBox="0 0 48 46" fill="none" xmlns="http://www.w3.org/2000/svg">
<rect width="4.77575" height="17.1573" rx="2.38787" transform="matrix(-0.87462 -0.48481 -0.48481 0.87462 27.3372 30.4449)" fill="#0033A0"/>
<rect x="20.84" y="30.4449" width="4.77575" height="17.1573" rx="2.38787" transform="rotate(-29 20.84 30.4449)" fill="#F2A800"/>
<rect x="31.7919" y="22.1191" width="4.77575" height="17.1573" rx="2.38787" transform="rotate(-147.452 31.7919 22.1191)" fill="#F2A800"/>
<rect width="4.77575" height="17.1573" rx="2.38787" transform="matrix(-0.00957141 0.999954 0.999954 0.00957141 28.6965 16.4066)" fill="#0033A0"/>
<rect width="4.77575" height="17.1573" rx="2.38787" transform="matrix(0.842937 -0.538012 -0.538012 -0.842937 16.051 22.1195)" fill="#0033A0"/>
<rect x="19.1464" y="16.407" width="4.77575" height="17.1573" rx="2.38787" transform="rotate(89.4516 19.1464 16.407)" fill="#F2A800"/>
<rect x="27.1603" y="15.5552" width="4.77575" height="17.1573" rx="2.38787" transform="rotate(151 27.1603 15.5552)" fill="#D90012"/>
<rect width="4.77575" height="17.1573" rx="2.38787" transform="matrix(0.87462 0.48481 0.48481 -0.87462 20.6632 15.5552)" fill="#0033A0"/>
<rect x="28.8534" y="29.4415" width="4.77575" height="17.1573" rx="2.38787" transform="rotate(-90.5484 28.8534 29.4415)" fill="#0033A0"/>
<rect width="4.77575" height="17.1573" rx="2.38787" transform="matrix(-0.842937 0.538012 0.538012 0.842937 31.9488 23.7291)" fill="#D90012"/>
<rect width="4.77575" height="17.1573" rx="2.38787" transform="matrix(0.00957141 -0.999954 -0.999954 -0.00957141 19.3235 29.4415)" fill="#0033A0"/>
<rect x="16.2282" y="23.7291" width="4.77575" height="17.1573" rx="2.38787" transform="rotate(32.5484 16.2282 23.7291)" fill="#D90012"/>
</svg>
