<svg width="41" height="40" viewBox="0 0 41 40" fill="none" xmlns="http://www.w3.org/2000/svg">
<g clip-path="url(#clip0_1729_8210)">
<path fill-rule="evenodd" clip-rule="evenodd" d="M33.7239 29.5935V37.9423H12.2054V31.7346C8.1195 31.4548 4.8634 28.0255 4.8634 23.8724V18.3301H10.4755V23.8724C10.4755 25.1085 11.5072 26.1402 12.7432 26.1402H19.6715V23.8813H23.2411V26.1402H30.2697C32.1695 26.1402 33.7239 27.6945 33.7239 29.5935Z" fill="#08A9F1"/>
<path fill-rule="evenodd" clip-rule="evenodd" d="M19.3218 20.5342H23.855V23.6655L21.5872 25.0697L19.3218 23.6655V20.5342ZM7.30592 13.7969H7.91717C8.78748 13.7969 9.50092 14.5081 9.50092 15.3784V18.3301H5.72217V15.3784C5.72217 14.5081 6.43561 13.7969 7.30592 13.7969Z" fill="#FBE1CA"/>
<path fill-rule="evenodd" clip-rule="evenodd" d="M21.2987 22.0822C24.748 22.0822 27.5611 18.5897 27.5611 14.3087C27.5611 10.0277 24.748 6.53516 21.2987 6.53516C17.8494 6.53516 15.0363 10.0277 15.0363 14.3087C15.0363 18.5897 17.8494 22.0822 21.2987 22.0822Z" fill="#FBE1CA"/>
<path fill-rule="evenodd" clip-rule="evenodd" d="M27.4974 15.4175C34.0053 10.2298 26.4613 -0.290871 16.0814 4.80819C13.841 6.43514 12.623 8.62788 13.166 11.7909C13.6137 13.6724 14.2772 14.8608 15.1089 15.497C15.0157 11.9591 15.7269 9.95944 16.8813 8.80054C18.0084 10.0889 19.4739 10.9115 21.3714 11.141C26.0386 10.4866 27.9156 12.0431 27.4974 15.4175Z" fill="#5C5F85"/>
<path d="M29.4561 30.7662V37.9422H28.3339V30.7662C28.3338 30.6925 28.3483 30.6195 28.3764 30.5514C28.4046 30.4833 28.4459 30.4214 28.4981 30.3693C28.5502 30.3172 28.6121 30.2758 28.6802 30.2477C28.7483 30.2195 28.8213 30.205 28.895 30.2051C28.9687 30.205 29.0417 30.2195 29.1098 30.2476C29.1779 30.2758 29.2398 30.3171 29.2919 30.3693C29.344 30.4214 29.3854 30.4833 29.4135 30.5514C29.4417 30.6195 29.4562 30.6925 29.4561 30.7662Z" fill="#009FE8"/>
<path fill-rule="evenodd" clip-rule="evenodd" d="M4.98594 9.70484L7.25828 11.3977V9.70484H10.4236C10.9439 9.70484 11.3688 9.27766 11.3688 8.75953V3.00391C11.3688 2.48586 10.9439 2.05859 10.4236 2.05859H1.4843C0.96625 2.05859 0.539062 2.48578 0.539062 3.00391V8.75961C0.539062 9.27773 0.96625 9.70492 1.4843 9.70492H4.98594V9.70484Z" fill="#DF646E"/>
<path fill-rule="evenodd" clip-rule="evenodd" d="M36.4435 22.4841L33.7417 24.5655V22.4841H30.5764C30.056 22.4841 29.6311 22.057 29.6311 21.5388V15.7831C29.6311 15.2651 30.056 14.8379 30.5764 14.8379H39.5156C40.036 14.8379 40.4609 15.2651 40.4609 15.7831V21.5388C40.4609 22.057 40.036 22.4841 39.5156 22.4841H36.4435Z" fill="#66CC99"/>
<path d="M30.7628 16.946C30.7628 16.7971 30.8219 16.6544 30.9271 16.5491C31.0324 16.4438 31.1752 16.3847 31.324 16.3847H38.7C39.01 16.3847 39.2612 16.636 39.2612 16.946C39.2612 17.256 39.01 17.5072 38.7 17.5072H31.324C31.2503 17.5072 31.1773 17.4927 31.1092 17.4645C31.0411 17.4363 30.9792 17.395 30.9271 17.3428C30.875 17.2907 30.8337 17.2289 30.8055 17.1608C30.7773 17.0927 30.7628 17.0197 30.7628 16.946ZM38.7 18.1003H31.324C31.014 18.1003 30.7628 18.3515 30.7628 18.6615C30.7628 18.9715 31.014 19.2228 31.324 19.2228H38.7C39.01 19.2228 39.2612 18.9715 39.2612 18.6615C39.2612 18.3515 39.01 18.1003 38.7 18.1003ZM38.7 19.8136H31.324C31.014 19.8136 30.7628 20.0649 30.7628 20.3749C30.7628 20.6849 31.014 20.9361 31.324 20.9361H38.7C39.01 20.9361 39.2612 20.6849 39.2612 20.3749C39.2612 20.0649 39.01 19.8136 38.7 19.8136ZM21.5873 35.5697C21.5136 35.5697 21.4406 35.5552 21.3725 35.527C21.3044 35.4988 21.2425 35.4574 21.1904 35.4053C21.1383 35.3532 21.097 35.2913 21.0688 35.2232C21.0406 35.1551 21.026 35.0822 21.026 35.0085V25.3398C21.026 25.0298 21.2773 24.7785 21.5873 24.7785C21.8973 24.7785 22.1485 25.0298 22.1485 25.3398V35.0084C22.1486 35.0821 22.1341 35.1551 22.1059 35.2232C22.0777 35.2913 22.0363 35.3532 21.9842 35.4053C21.9321 35.4574 21.8702 35.4988 21.8021 35.527C21.734 35.5552 21.661 35.5697 21.5873 35.5697ZM7.39667 6.1733C7.17565 6.35823 6.94276 6.45104 6.75565 6.52565C6.67636 6.55729 6.55823 6.60432 6.52292 6.63338C6.51972 6.64377 6.513 6.6726 6.513 6.72979V6.99112C6.513 7.30112 6.26175 7.55237 5.95175 7.55237C5.64175 7.55237 5.3905 7.30112 5.3905 6.99112V6.72979C5.3905 5.86159 6.00815 5.61526 6.33995 5.48291C6.47581 5.42877 6.59323 5.38198 6.67558 5.31315C6.87417 5.14627 7.07815 4.87713 6.9169 4.54744C6.75987 4.22666 6.29159 3.95049 5.73315 4.0701C5.02855 4.21877 4.93378 4.59174 4.93378 4.93698C4.93378 5.24698 4.68253 5.49823 4.37253 5.49823C4.06253 5.49823 3.81128 5.24698 3.81128 4.93698C3.81128 3.91471 4.42667 3.19854 5.49964 2.97213C6.49292 2.75901 7.51417 3.21385 7.92519 4.05409C8.28347 4.78635 8.08089 5.59838 7.39667 6.1733ZM5.95167 7.77955C5.80282 7.77955 5.66006 7.83869 5.55481 7.94394C5.44955 8.04919 5.39042 8.19195 5.39042 8.3408V8.34987C5.39042 8.65987 5.64167 8.91112 5.95167 8.91112C6.26167 8.91112 6.51292 8.65987 6.51292 8.34987V8.3408C6.51292 8.19195 6.45379 8.04919 6.34853 7.94394C6.24328 7.83869 6.10052 7.77955 5.95167 7.77955Z" fill="#E2F0FA"/>
<path fill-rule="evenodd" clip-rule="evenodd" d="M19.3218 23.666L15.0748 26.1405L18.097 28.5605L21.5873 25.0702L19.3218 23.666Z" fill="#E2F0FA"/>
<path fill-rule="evenodd" clip-rule="evenodd" d="M23.855 23.666L28.102 26.1405L25.0798 28.5605L21.5873 25.0702L23.855 23.666Z" fill="#E2F0FA"/>
<path fill-rule="evenodd" clip-rule="evenodd" d="M9.4624 9.70484H10.4236C10.9439 9.70484 11.3688 9.27766 11.3688 8.75953V3.00391C11.3688 2.48586 10.9439 2.05859 10.4236 2.05859H9.4624C9.98271 2.05859 10.4076 2.48578 10.4076 3.00391V8.75961C10.4076 9.27766 9.98271 9.70484 9.4624 9.70484Z" fill="#D82F3C"/>
<path fill-rule="evenodd" clip-rule="evenodd" d="M38.5522 22.4841H39.5157C40.0361 22.4841 40.461 22.057 40.461 21.5388V15.7831C40.461 15.2651 40.0361 14.8379 39.5157 14.8379H38.5522C39.0726 14.8379 39.4975 15.2651 39.4975 15.7831V21.5388C39.4976 22.057 39.0726 22.4841 38.5522 22.4841Z" fill="#4DBA83"/>
</g>
<defs>
<clipPath id="clip0_1729_8210">
<rect width="40" height="40" fill="white" transform="translate(0.5)"/>
</clipPath>
</defs>
</svg>
