<svg width="72" height="72" viewBox="0 0 72 72" fill="none" xmlns="http://www.w3.org/2000/svg">
<g clip-path="url(#clip0_1754_5500)">
<g filter="url(#filter0_d_1754_5500)">
<path d="M17.1282 53.1716C20.6941 54.6353 23.5155 56.9962 25.2446 59.672C25.6067 60.2324 25.0606 61.5625 24.4093 61.707C21.2987 62.396 17.6324 62.0938 14.0665 60.6299C10.5007 59.1661 7.67928 56.8053 5.95015 54.1295C5.58803 53.5691 6.13411 52.2388 6.78549 52.0945C9.89589 51.4055 13.5624 51.7079 17.1282 53.1716Z" fill="url(#paint0_linear_1754_5500)"/>
<path d="M17.1282 53.1716C20.6941 54.6353 23.5155 56.9962 25.2446 59.672C25.6067 60.2324 25.0606 61.5625 24.4093 61.707C21.2987 62.396 17.6324 62.0938 14.0665 60.6299C10.5007 59.1661 7.67928 56.8053 5.95015 54.1295C5.58803 53.5691 6.13411 52.2388 6.78549 52.0945C9.89589 51.4055 13.5624 51.7079 17.1282 53.1716Z" fill="url(#paint1_linear_1754_5500)"/>
<path d="M18.9418 48.113C22.4339 50.8808 24.8119 54.4067 25.876 57.9327C26.0987 58.6712 25.0663 59.9738 24.2965 59.9255C20.6207 59.695 16.6449 58.1851 13.1527 55.4173C9.66058 52.6496 7.2826 49.1237 6.21855 45.5977C5.99578 44.8592 7.0282 43.5565 7.79804 43.6048C11.4738 43.8355 15.4497 45.3452 18.9418 48.113Z" fill="url(#paint2_linear_1754_5500)"/>
<path d="M18.9418 48.113C22.4339 50.8808 24.8119 54.4067 25.876 57.9327C26.0987 58.6712 25.0663 59.9738 24.2965 59.9255C20.6207 59.695 16.6449 58.1851 13.1527 55.4173C9.66058 52.6496 7.2826 49.1237 6.21855 45.5977C5.99578 44.8592 7.0282 43.5565 7.79804 43.6048C11.4738 43.8355 15.4497 45.3452 18.9418 48.113Z" fill="url(#paint3_linear_1754_5500)"/>
<path d="M22.4667 40.3235C25.5266 45.0203 26.9544 50.1763 26.815 54.8075C26.7857 55.7774 25.0336 56.9188 24.1347 56.5537C19.8421 54.81 15.7027 51.4205 12.6428 46.7237C9.58296 42.0269 8.1551 36.8709 8.29458 32.2397C8.32381 31.2698 10.0759 30.1284 10.9748 30.4935C15.2674 32.2372 19.4069 35.6267 22.4667 40.3235Z" fill="url(#paint4_linear_1754_5500)"/>
<path d="M8.81665 37.6827C9.47397 40.7162 10.7437 43.8078 12.6428 46.7228C15.7027 51.4196 19.842 54.8091 24.1347 56.5528C25.0337 56.918 26.7857 55.7765 26.815 54.8066C26.9546 50.1755 25.5267 45.0194 22.4667 40.3226C20.6649 37.557 18.4887 35.2451 16.1273 33.4551L8.81665 37.6827Z" fill="url(#paint5_linear_1754_5500)"/>
<path d="M54.8719 53.1716C51.3061 54.6353 48.4847 56.9962 46.7556 59.672C46.3935 60.2324 46.9395 61.5625 47.5909 61.707C50.7015 62.396 54.3678 62.0938 57.9336 60.6299C61.4995 59.1661 64.3209 56.8053 66.05 54.1295C66.4121 53.5691 65.8661 52.2388 65.2147 52.0945C62.1043 51.4055 58.4378 51.7079 54.8719 53.1716Z" fill="url(#paint6_linear_1754_5500)"/>
<path d="M54.8719 53.1716C51.3061 54.6353 48.4847 56.9962 46.7556 59.672C46.3935 60.2324 46.9395 61.5625 47.5909 61.707C50.7015 62.396 54.3678 62.0938 57.9336 60.6299C61.4995 59.1661 64.3209 56.8053 66.05 54.1295C66.4121 53.5691 65.8661 52.2388 65.2147 52.0945C62.1043 51.4055 58.4378 51.7079 54.8719 53.1716Z" fill="url(#paint7_linear_1754_5500)"/>
<path d="M53.0582 48.113C49.5661 50.8808 47.1881 54.4067 46.1241 57.9327C45.9013 58.6712 46.9337 59.9738 47.7036 59.9255C51.3794 59.695 55.3552 58.1851 58.8473 55.4173C62.3395 52.6496 64.7174 49.1237 65.7815 45.5977C66.0043 44.8592 64.9718 43.5565 64.202 43.6048C60.5262 43.8355 56.5504 45.3452 53.0582 48.113Z" fill="url(#paint8_linear_1754_5500)"/>
<path d="M53.0582 48.113C49.5661 50.8808 47.1881 54.4067 46.1241 57.9327C45.9013 58.6712 46.9337 59.9738 47.7036 59.9255C51.3794 59.695 55.3552 58.1851 58.8473 55.4173C62.3395 52.6496 64.7174 49.1237 65.7815 45.5977C66.0043 44.8592 64.9718 43.5565 64.202 43.6048C60.5262 43.8355 56.5504 45.3452 53.0582 48.113Z" fill="url(#paint9_linear_1754_5500)"/>
<path d="M49.5332 40.3235C46.4733 45.0203 45.0455 50.1763 45.185 54.8075C45.2142 55.7774 46.9663 56.9188 47.8652 56.5537C52.1578 54.81 56.2972 51.4205 59.3571 46.7237C62.417 42.0269 63.8448 36.8709 63.7053 32.2397C63.6761 31.2698 61.924 30.1284 61.0251 30.4935C56.7325 32.2372 52.5931 35.6267 49.5332 40.3235Z" fill="url(#paint10_linear_1754_5500)"/>
<path d="M63.1833 37.6827C62.526 40.7162 61.2562 43.8078 59.3571 46.7228C56.2973 51.4196 52.158 54.8091 47.8652 56.5528C46.9662 56.918 45.2142 55.7765 45.185 54.8066C45.0454 50.1755 46.4732 45.0194 49.5332 40.3226C51.3351 37.557 53.5113 35.2451 55.8726 33.4551L63.1833 37.6827Z" fill="url(#paint11_linear_1754_5500)"/>
<path d="M36 71.9991C48.3992 71.9991 58.4508 61.9476 58.4508 49.5484C58.4508 37.1492 48.3992 27.0977 36 27.0977C23.6008 27.0977 13.5493 37.1492 13.5493 49.5484C13.5493 61.9476 23.6008 71.9991 36 71.9991Z" fill="url(#paint12_linear_1754_5500)"/>
<path d="M36.0001 67.444C45.8831 67.444 53.8949 59.4322 53.8949 49.5491C53.8949 39.6661 45.8831 31.6543 36.0001 31.6543C26.117 31.6543 18.1052 39.6661 18.1052 49.5491C18.1052 59.4322 26.117 67.444 36.0001 67.444Z" fill="url(#paint13_linear_1754_5500)"/>
<path d="M35.9998 64.9112C44.4844 64.9112 51.3626 58.033 51.3626 49.5484C51.3626 41.0637 44.4844 34.1855 35.9998 34.1855C27.5151 34.1855 20.637 41.0637 20.637 49.5484C20.637 58.033 27.5151 64.9112 35.9998 64.9112Z" fill="url(#paint14_linear_1754_5500)"/>
<path d="M13.5493 49.5497C13.5493 61.9489 23.6008 72.0004 36 72.0004C48.3993 72.0004 58.4508 61.9489 58.4508 49.5497C58.4508 49.4626 58.4485 49.376 58.4475 49.2891H13.5526C13.5516 49.376 13.5493 49.4626 13.5493 49.5497Z" fill="url(#paint15_linear_1754_5500)"/>
<path d="M42.2967 71.1047C49.3709 69.0416 55.0002 63.5914 57.3117 56.6268L46.3772 45.6922L43.9121 45.8132L37.259 39.1602L29.1505 57.9585L42.2967 71.1047Z" fill="url(#paint16_linear_1754_5500)"/>
<path d="M45.2058 44.6702L40.803 43.6064C40.3934 43.5074 40.0355 43.2591 39.7993 42.9102L37.2613 39.1584C36.9542 38.7047 36.484 38.4611 36 38.4219C35.5161 38.4611 35.0457 38.7047 34.7387 39.1584L32.2007 42.9102C31.9646 43.2592 31.6067 43.5075 31.197 43.6064L26.7942 44.6702C25.5998 44.9588 25.1022 46.3842 25.8572 47.3535L28.641 50.9267C28.9 51.2591 29.0256 51.6762 28.9931 52.0964L28.6443 56.6125C28.5497 57.8375 29.7515 58.7514 30.9068 58.3327L35.1654 56.7894C35.4325 56.6931 35.7195 56.6658 36 56.7099C36.2805 56.6659 36.5675 56.6932 36.8346 56.7894L41.0932 58.3327C42.2483 58.7513 43.4503 57.8375 43.3557 56.6125L43.0069 52.0964C42.9744 51.6762 43.1001 51.2592 43.359 50.9267L46.1428 47.3535C46.8978 46.3842 46.4002 44.9588 45.2058 44.6702Z" fill="url(#paint17_linear_1754_5500)"/>
<path d="M36.8346 56.7894L41.0932 58.3327C42.2483 58.7513 43.4503 57.8375 43.3557 56.6125L43.0069 52.0964C42.9744 51.6762 43.1 51.2592 43.359 50.9267L46.1428 47.3535C46.898 46.3844 46.4002 44.9588 45.2058 44.6702L40.803 43.6064C40.3934 43.5074 40.0355 43.2591 39.7993 42.9102L37.2613 39.1584C36.9542 38.7047 36.484 38.4611 36 38.4219V56.7099C36.2805 56.6657 36.5675 56.6931 36.8346 56.7894Z" fill="url(#paint18_linear_1754_5500)"/>
<path d="M45.2057 44.6705L40.8029 43.6067C40.6538 43.5706 40.5104 43.5143 40.3765 43.4395L29.1527 57.9571C29.593 58.3826 30.2573 58.5685 30.9067 58.3331L35.1653 56.7898C35.4324 56.6935 35.7194 56.6662 35.9999 56.7103C36.2804 56.6663 36.5674 56.6937 36.8345 56.7898L41.0931 58.3331C42.2482 58.7517 43.4502 57.8379 43.3556 56.6129L43.0068 52.0968C42.9743 51.6767 43.1 51.2596 43.3589 50.9272L46.1427 47.354C46.8977 46.3845 46.4001 44.9591 45.2057 44.6705Z" fill="url(#paint19_linear_1754_5500)"/>
<path d="M26.7939 44.6705L31.1968 43.6067C31.3459 43.5706 31.4893 43.5143 31.6232 43.4395L42.847 57.9571C42.4066 58.3826 41.7424 58.5685 41.093 58.3331L36.8344 56.7898C36.5673 56.6935 36.2802 56.6662 35.9998 56.7103C35.7193 56.6663 35.4323 56.6937 35.1651 56.7898L30.9065 58.3331C29.7514 58.7517 28.5495 57.8379 28.644 56.6129L28.9929 52.0968C29.0254 51.6767 28.8997 51.2596 28.6408 50.9272L25.8569 47.354C25.1019 46.3845 25.5996 44.9591 26.7939 44.6705Z" fill="url(#paint20_linear_1754_5500)"/>
<path d="M25.6221 45.6934C25.4127 46.2214 25.463 46.8506 25.857 47.3564L28.6409 50.9296C28.8998 51.262 29.0254 51.6791 28.9929 52.0992L28.6441 56.6153C28.5495 57.8403 29.7513 58.7543 30.9066 58.3356L35.1652 56.7922C35.4323 56.696 35.7194 56.6686 35.9998 56.7128C36.2803 56.6688 36.5673 56.6961 36.8345 56.7922L41.093 58.3356C42.2481 58.7542 43.4501 57.8403 43.3555 56.6153L43.0067 52.0992C42.9893 51.8682 43.0198 51.636 43.0961 51.4172L25.6221 45.6934Z" fill="url(#paint21_linear_1754_5500)"/>
<path d="M46.3794 45.6934C46.5888 46.2214 46.5387 46.8506 46.1445 47.3564L43.3607 50.9296C43.1017 51.262 42.9762 51.6791 43.0086 52.0992L43.3574 56.6153C43.452 57.8403 42.25 58.7543 41.0949 58.3356L36.8363 56.7922C36.5692 56.696 36.2822 56.6686 36.0017 56.7128C35.7212 56.6688 35.4342 56.6961 35.1671 56.7922L30.9085 58.3356C29.7534 58.7542 28.5514 57.8403 28.646 56.6153L28.9948 52.0992C29.0122 51.8682 28.9818 51.636 28.9055 51.4172L46.3794 45.6934Z" fill="url(#paint22_linear_1754_5500)"/>
<path d="M36 27.0977C35.9068 27.0977 35.8144 27.1001 35.7215 27.1012L32.2567 30.5659L57.55 55.8593C58.1488 53.8091 58.4521 51.684 58.4507 49.5482C58.4507 37.1491 48.3993 27.0977 36 27.0977Z" fill="url(#paint23_linear_1754_5500)"/>
<path d="M22.4471 0.470703V12.3295L36.0001 25.8825L49.553 12.3295V0.470703H22.4471Z" fill="url(#paint24_linear_1754_5500)"/>
<path d="M22.4471 0.470703V4.16134L35.9548 17.669C35.9668 17.681 35.9831 17.6877 36.0001 17.6877C36.0171 17.6877 36.0334 17.681 36.0454 17.669L49.553 4.16134V0.470703H22.4471Z" fill="url(#paint25_linear_1754_5500)"/>
<path d="M22.4471 0.470703V4.16134L35.9548 17.669C35.9668 17.681 35.9831 17.6877 36.0001 17.6877C36.0171 17.6877 36.0334 17.681 36.0454 17.669L49.553 4.16134V0.470703H22.4471Z" fill="url(#paint26_linear_1754_5500)"/>
<path d="M36.0001 19.8026C35.7136 19.8031 35.4298 19.747 35.1651 19.6375C34.9004 19.5281 34.6599 19.3673 34.4575 19.1646L22.4471 7.1543V12.3278L36.0001 25.8808L49.553 12.3278V7.1543L37.5427 19.1646C37.3403 19.3673 37.0998 19.528 36.8351 19.6375C36.5703 19.747 36.2866 19.8031 36.0001 19.8026Z" fill="url(#paint27_linear_1754_5500)"/>
<path d="M36.0001 19.8026C35.7136 19.8031 35.4298 19.747 35.1651 19.6375C34.9004 19.5281 34.6599 19.3673 34.4575 19.1646L22.4471 7.1543V12.3278L36.0001 25.8808L49.553 12.3278V7.1543L37.5427 19.1646C37.3403 19.3673 37.0998 19.528 36.8351 19.6375C36.5703 19.747 36.2866 19.8031 36.0001 19.8026Z" fill="url(#paint28_linear_1754_5500)"/>
<path d="M36.0001 19.8026C36.5589 19.8026 37.1175 19.59 37.5427 19.1646L49.553 7.1543V12.3278L36.0001 25.8808L22.4471 12.3278V7.1543L34.4575 19.1646C34.6599 19.3673 34.9004 19.528 35.1651 19.6375C35.4299 19.747 35.7136 19.8031 36.0001 19.8026Z" fill="url(#paint29_linear_1754_5500)"/>
<path d="M34.5139 22.803L22.9806 11.2697C22.1157 10.4049 20.7134 10.4049 19.8486 11.2697C18.9837 12.1346 18.9837 13.5369 19.8486 14.4017L36 30.5534L52.1516 14.4019C53.0164 13.537 53.0164 12.1347 52.1516 11.2699C51.2868 10.405 49.8844 10.405 49.0196 11.2699L37.4863 22.8031C36.6654 23.6239 35.3347 23.6239 34.5139 22.803Z" fill="url(#paint30_linear_1754_5500)"/>
<path d="M19.8485 11.296L34.2995 25.747C35.2387 26.6862 36.7616 26.6862 37.7008 25.747L52.1517 11.296C52.1559 11.2918 52.1593 11.2871 52.1635 11.2829C52.1594 11.2786 52.1559 11.274 52.1517 11.2697C51.2868 10.4049 49.8845 10.4049 49.0197 11.2697L37.4864 22.803C36.6656 23.6238 35.3347 23.6238 34.5139 22.803L22.9807 11.2697C22.1158 10.4049 20.7135 10.4049 19.8487 11.2697C19.8444 11.274 19.841 11.2786 19.8368 11.2829C19.8409 11.2871 19.8443 11.2918 19.8485 11.296Z" fill="url(#paint31_linear_1754_5500)"/>
<path d="M36 30.5536L47.4013 19.1523H41.1372L37.4862 22.8033C36.6654 23.6241 35.3345 23.6241 34.5137 22.8033L30.8628 19.1523H24.5986L36 30.5536Z" fill="url(#paint32_linear_1754_5500)"/>
<path d="M34.5883 29.1421L36 30.5539L50.4602 16.0938H44.196L37.4863 22.8034C36.6894 23.6004 35.4133 23.6211 34.5883 22.8708V29.1421Z" fill="url(#paint33_linear_1754_5500)"/>
<path d="M36 32.117C38.9237 32.117 41.2938 29.7468 41.2938 26.8231C41.2938 23.8994 38.9237 21.5293 36 21.5293C33.0763 21.5293 30.7062 23.8994 30.7062 26.8231C30.7062 29.7468 33.0763 32.117 36 32.117Z" fill="url(#paint34_linear_1754_5500)"/>
<path d="M36 29.861C37.6762 29.861 39.035 28.5022 39.035 26.826C39.035 25.1498 37.6762 23.791 36 23.791C34.3238 23.791 32.965 25.1498 32.965 26.826C32.965 28.5022 34.3238 29.861 36 29.861Z" fill="url(#paint35_linear_1754_5500)"/>
<path d="M51.6003 5.27054H20.3997C19.5033 5.27054 18.7765 4.54376 18.7765 3.64729V1.62325C18.7765 0.726777 19.5033 0 20.3997 0H51.6004C52.4968 0 53.2235 0.726777 53.2235 1.62325V3.64744C53.2235 4.54391 52.4968 5.27054 51.6003 5.27054Z" fill="url(#paint36_linear_1754_5500)"/>
</g>
</g>
<defs>
<filter id="filter0_d_1754_5500" x="1.83447" y="0" width="68.3312" height="80" filterUnits="userSpaceOnUse" color-interpolation-filters="sRGB">
<feFlood flood-opacity="0" result="BackgroundImageFix"/>
<feColorMatrix in="SourceAlpha" type="matrix" values="0 0 0 0 0 0 0 0 0 0 0 0 0 0 0 0 0 0 127 0" result="hardAlpha"/>
<feOffset dy="4"/>
<feGaussianBlur stdDeviation="2"/>
<feComposite in2="hardAlpha" operator="out"/>
<feColorMatrix type="matrix" values="0 0 0 0 0 0 0 0 0 0 0 0 0 0 0 0 0 0 0.25 0"/>
<feBlend mode="normal" in2="BackgroundImageFix" result="effect1_dropShadow_1754_5500"/>
<feBlend mode="normal" in="SourceGraphic" in2="effect1_dropShadow_1754_5500" result="shape"/>
</filter>
<linearGradient id="paint0_linear_1754_5500" x1="13.0231" y1="50.174" x2="15.5736" y2="56.8279" gradientUnits="userSpaceOnUse">
<stop stop-color="#E6E6E6"/>
<stop offset="1" stop-color="#999999"/>
</linearGradient>
<linearGradient id="paint1_linear_1754_5500" x1="11.6987" y1="53.6493" x2="17.2808" y2="58.2928" gradientUnits="userSpaceOnUse">
<stop stop-color="#766E6E" stop-opacity="0"/>
<stop offset="0.281" stop-color="#716B6B" stop-opacity="0.281"/>
<stop offset="0.571" stop-color="#656060" stop-opacity="0.571"/>
<stop offset="0.864" stop-color="#514F4F" stop-opacity="0.864"/>
<stop offset="1" stop-color="#444444"/>
</linearGradient>
<linearGradient id="paint2_linear_1754_5500" x1="10.1485" y1="44.3125" x2="15.4961" y2="51.0586" gradientUnits="userSpaceOnUse">
<stop stop-color="#E6E6E6"/>
<stop offset="1" stop-color="#999999"/>
</linearGradient>
<linearGradient id="paint3_linear_1754_5500" x1="11.4621" y1="50.6094" x2="16.5462" y2="51.8822" gradientUnits="userSpaceOnUse">
<stop stop-color="#766E6E" stop-opacity="0"/>
<stop offset="0.281" stop-color="#716B6B" stop-opacity="0.281"/>
<stop offset="0.571" stop-color="#656060" stop-opacity="0.571"/>
<stop offset="0.864" stop-color="#514F4F" stop-opacity="0.864"/>
<stop offset="1" stop-color="#444444"/>
</linearGradient>
<linearGradient id="paint4_linear_1754_5500" x1="17.189" y1="35.7843" x2="17.7388" y2="47.2182" gradientUnits="userSpaceOnUse">
<stop stop-color="#E6E6E6"/>
<stop offset="1" stop-color="#999999"/>
</linearGradient>
<linearGradient id="paint5_linear_1754_5500" x1="16.3332" y1="41.7003" x2="19.6556" y2="46.614" gradientUnits="userSpaceOnUse">
<stop stop-color="#766E6E" stop-opacity="0"/>
<stop offset="0.281" stop-color="#716B6B" stop-opacity="0.281"/>
<stop offset="0.571" stop-color="#656060" stop-opacity="0.571"/>
<stop offset="0.864" stop-color="#514F4F" stop-opacity="0.864"/>
<stop offset="1" stop-color="#444444"/>
</linearGradient>
<linearGradient id="paint6_linear_1754_5500" x1="58.9814" y1="50.1695" x2="56.4282" y2="56.8214" gradientUnits="userSpaceOnUse">
<stop stop-color="#E6E6E6"/>
<stop offset="1" stop-color="#999999"/>
</linearGradient>
<linearGradient id="paint7_linear_1754_5500" x1="60.3041" y1="53.6449" x2="54.7206" y2="58.2852" gradientUnits="userSpaceOnUse">
<stop stop-color="#766E6E" stop-opacity="0"/>
<stop offset="0.281" stop-color="#716B6B" stop-opacity="0.281"/>
<stop offset="0.571" stop-color="#656060" stop-opacity="0.571"/>
<stop offset="0.864" stop-color="#514F4F" stop-opacity="0.864"/>
<stop offset="1" stop-color="#444444"/>
</linearGradient>
<linearGradient id="paint8_linear_1754_5500" x1="61.8583" y1="44.3101" x2="56.5083" y2="51.053" gradientUnits="userSpaceOnUse">
<stop stop-color="#E6E6E6"/>
<stop offset="1" stop-color="#999999"/>
</linearGradient>
<linearGradient id="paint9_linear_1754_5500" x1="60.5418" y1="50.6055" x2="55.4578" y2="51.876" gradientUnits="userSpaceOnUse">
<stop stop-color="#766E6E" stop-opacity="0"/>
<stop offset="0.281" stop-color="#716B6B" stop-opacity="0.281"/>
<stop offset="0.571" stop-color="#656060" stop-opacity="0.571"/>
<stop offset="0.864" stop-color="#514F4F" stop-opacity="0.864"/>
<stop offset="1" stop-color="#444444"/>
</linearGradient>
<linearGradient id="paint10_linear_1754_5500" x1="54.8224" y1="35.7799" x2="54.2675" y2="47.212" gradientUnits="userSpaceOnUse">
<stop stop-color="#E6E6E6"/>
<stop offset="1" stop-color="#999999"/>
</linearGradient>
<linearGradient id="paint11_linear_1754_5500" x1="55.6754" y1="41.6954" x2="52.3513" y2="46.6069" gradientUnits="userSpaceOnUse">
<stop stop-color="#766E6E" stop-opacity="0"/>
<stop offset="0.281" stop-color="#716B6B" stop-opacity="0.281"/>
<stop offset="0.571" stop-color="#656060" stop-opacity="0.571"/>
<stop offset="0.864" stop-color="#514F4F" stop-opacity="0.864"/>
<stop offset="1" stop-color="#444444"/>
</linearGradient>
<linearGradient id="paint12_linear_1754_5500" x1="22.1583" y1="35.7066" x2="45.8358" y2="59.3842" gradientUnits="userSpaceOnUse">
<stop stop-color="#E6E6E6"/>
<stop offset="1" stop-color="#999999"/>
</linearGradient>
<linearGradient id="paint13_linear_1754_5500" x1="47.6225" y1="61.1716" x2="24.0385" y2="37.5875" gradientUnits="userSpaceOnUse">
<stop stop-color="#E6E6E6"/>
<stop offset="1" stop-color="#999999"/>
</linearGradient>
<linearGradient id="paint14_linear_1754_5500" x1="24.8315" y1="38.38" x2="43.215" y2="56.7636" gradientUnits="userSpaceOnUse">
<stop stop-color="#E6E6E6"/>
<stop offset="1" stop-color="#999999"/>
</linearGradient>
<linearGradient id="paint15_linear_1754_5500" x1="36" y1="56.1183" x2="36" y2="70.8543" gradientUnits="userSpaceOnUse">
<stop stop-color="#766E6E" stop-opacity="0"/>
<stop offset="0.281" stop-color="#716B6B" stop-opacity="0.281"/>
<stop offset="0.571" stop-color="#656060" stop-opacity="0.571"/>
<stop offset="0.864" stop-color="#514F4F" stop-opacity="0.864"/>
<stop offset="1" stop-color="#444444"/>
</linearGradient>
<linearGradient id="paint16_linear_1754_5500" x1="49.4462" y1="61.2181" x2="30.9049" y2="49.5475" gradientUnits="userSpaceOnUse">
<stop stop-color="#766E6E" stop-opacity="0"/>
<stop offset="0.281" stop-color="#716B6B" stop-opacity="0.281"/>
<stop offset="0.571" stop-color="#656060" stop-opacity="0.571"/>
<stop offset="0.864" stop-color="#514F4F" stop-opacity="0.864"/>
<stop offset="1" stop-color="#444444"/>
</linearGradient>
<linearGradient id="paint17_linear_1754_5500" x1="31.3234" y1="45.2812" x2="39.7567" y2="53.7144" gradientUnits="userSpaceOnUse">
<stop stop-color="#F9F5F3"/>
<stop offset="1" stop-color="#D8E8F0"/>
</linearGradient>
<linearGradient id="paint18_linear_1754_5500" x1="41.0531" y1="47.5806" x2="29.3972" y2="52.3992" gradientUnits="userSpaceOnUse">
<stop stop-color="#678D98" stop-opacity="0"/>
<stop offset="0.996" stop-color="#678D98" stop-opacity="0.996"/>
<stop offset="1" stop-color="#678D98"/>
</linearGradient>
<linearGradient id="paint19_linear_1754_5500" x1="38.0097" y1="51.7173" x2="31.6282" y2="48.9823" gradientUnits="userSpaceOnUse">
<stop stop-color="#678D98" stop-opacity="0"/>
<stop offset="0.996" stop-color="#678D98" stop-opacity="0.996"/>
<stop offset="1" stop-color="#678D98"/>
</linearGradient>
<linearGradient id="paint20_linear_1754_5500" x1="33.99" y1="51.7173" x2="40.3714" y2="48.9823" gradientUnits="userSpaceOnUse">
<stop stop-color="#678D98" stop-opacity="0"/>
<stop offset="0.996" stop-color="#678D98" stop-opacity="0.996"/>
<stop offset="1" stop-color="#678D98"/>
</linearGradient>
<linearGradient id="paint21_linear_1754_5500" x1="34.1319" y1="52.0399" x2="38.2342" y2="45.4469" gradientUnits="userSpaceOnUse">
<stop stop-color="#678D98" stop-opacity="0"/>
<stop offset="0.996" stop-color="#678D98" stop-opacity="0.996"/>
<stop offset="1" stop-color="#678D98"/>
</linearGradient>
<linearGradient id="paint22_linear_1754_5500" x1="37.5534" y1="51.2073" x2="37.2116" y2="44.7607" gradientUnits="userSpaceOnUse">
<stop stop-color="#678D98" stop-opacity="0"/>
<stop offset="0.996" stop-color="#678D98" stop-opacity="0.996"/>
<stop offset="1" stop-color="#678D98"/>
</linearGradient>
<linearGradient id="paint23_linear_1754_5500" x1="47.0632" y1="40.0639" x2="38.4044" y2="24.911" gradientUnits="userSpaceOnUse">
<stop stop-color="#766E6E" stop-opacity="0"/>
<stop offset="0.281" stop-color="#716B6B" stop-opacity="0.281"/>
<stop offset="0.571" stop-color="#656060" stop-opacity="0.571"/>
<stop offset="0.864" stop-color="#514F4F" stop-opacity="0.864"/>
<stop offset="1" stop-color="#444444"/>
</linearGradient>
<linearGradient id="paint24_linear_1754_5500" x1="37.0041" y1="8.00148" x2="42.5806" y2="16.8956" gradientUnits="userSpaceOnUse">
<stop stop-color="#F9F5F3"/>
<stop offset="1" stop-color="#D8E8F0"/>
</linearGradient>
<linearGradient id="paint25_linear_1754_5500" x1="31.4419" y1="-2.9109" x2="48.7596" y2="16.9478" gradientUnits="userSpaceOnUse">
<stop stop-color="#B3DAFE"/>
<stop offset="1" stop-color="#0182FC"/>
</linearGradient>
<linearGradient id="paint26_linear_1754_5500" x1="36.0001" y1="9.3884" x2="36.0001" y2="4.72477" gradientUnits="userSpaceOnUse">
<stop stop-color="#0182FC" stop-opacity="0"/>
<stop offset="0.126" stop-color="#017FF3" stop-opacity="0.126"/>
<stop offset="0.331" stop-color="#0176DB" stop-opacity="0.331"/>
<stop offset="0.588" stop-color="#0268B4" stop-opacity="0.588"/>
<stop offset="0.886" stop-color="#02547E" stop-opacity="0.886"/>
<stop offset="1" stop-color="#024C67"/>
</linearGradient>
<linearGradient id="paint27_linear_1754_5500" x1="27.7631" y1="0.295379" x2="45.0807" y2="20.1541" gradientUnits="userSpaceOnUse">
<stop stop-color="#B3DAFE"/>
<stop offset="1" stop-color="#0182FC"/>
</linearGradient>
<linearGradient id="paint28_linear_1754_5500" x1="41.3641" y1="15.1049" x2="43.774" y2="17.5148" gradientUnits="userSpaceOnUse">
<stop stop-color="#0182FC" stop-opacity="0"/>
<stop offset="0.126" stop-color="#017FF3" stop-opacity="0.126"/>
<stop offset="0.331" stop-color="#0176DB" stop-opacity="0.331"/>
<stop offset="0.588" stop-color="#0268B4" stop-opacity="0.588"/>
<stop offset="0.886" stop-color="#02547E" stop-opacity="0.886"/>
<stop offset="1" stop-color="#024C67"/>
</linearGradient>
<linearGradient id="paint29_linear_1754_5500" x1="30.6361" y1="15.1049" x2="28.2262" y2="17.5148" gradientUnits="userSpaceOnUse">
<stop stop-color="#0182FC" stop-opacity="0"/>
<stop offset="0.126" stop-color="#017FF3" stop-opacity="0.126"/>
<stop offset="0.331" stop-color="#0176DB" stop-opacity="0.331"/>
<stop offset="0.588" stop-color="#0268B4" stop-opacity="0.588"/>
<stop offset="0.886" stop-color="#02547E" stop-opacity="0.886"/>
<stop offset="1" stop-color="#024C67"/>
</linearGradient>
<linearGradient id="paint30_linear_1754_5500" x1="48.238" y1="25.0738" x2="19.2884" y2="-3.87582" gradientUnits="userSpaceOnUse">
<stop stop-color="#E6E6E6"/>
<stop offset="1" stop-color="#999999"/>
</linearGradient>
<linearGradient id="paint31_linear_1754_5500" x1="36.0001" y1="11.5286" x2="36.0001" y2="31.2989" gradientUnits="userSpaceOnUse">
<stop stop-color="#E6E6E6"/>
<stop offset="1" stop-color="#999999"/>
</linearGradient>
<linearGradient id="paint32_linear_1754_5500" x1="36" y1="23.0111" x2="36" y2="29.5114" gradientUnits="userSpaceOnUse">
<stop stop-color="#766E6E" stop-opacity="0"/>
<stop offset="0.281" stop-color="#716B6B" stop-opacity="0.281"/>
<stop offset="0.571" stop-color="#656060" stop-opacity="0.571"/>
<stop offset="0.864" stop-color="#514F4F" stop-opacity="0.864"/>
<stop offset="1" stop-color="#444444"/>
</linearGradient>
<linearGradient id="paint33_linear_1754_5500" x1="42.673" y1="19.3308" x2="38.7201" y2="23.3543" gradientUnits="userSpaceOnUse">
<stop stop-color="#766E6E" stop-opacity="0"/>
<stop offset="0.281" stop-color="#716B6B" stop-opacity="0.281"/>
<stop offset="0.571" stop-color="#656060" stop-opacity="0.571"/>
<stop offset="0.864" stop-color="#514F4F" stop-opacity="0.864"/>
<stop offset="1" stop-color="#444444"/>
</linearGradient>
<linearGradient id="paint34_linear_1754_5500" x1="32.9647" y1="23.7878" x2="40.4513" y2="31.2744" gradientUnits="userSpaceOnUse">
<stop stop-color="#F9F5F3"/>
<stop offset="1" stop-color="#D8E8F0"/>
</linearGradient>
<linearGradient id="paint35_linear_1754_5500" x1="38.1529" y1="28.979" x2="34.4469" y2="25.2729" gradientUnits="userSpaceOnUse">
<stop stop-color="#F9F5F3"/>
<stop offset="1" stop-color="#D8E8F0"/>
</linearGradient>
<linearGradient id="paint36_linear_1754_5500" x1="36" y1="1.59995" x2="36" y2="4.54179" gradientUnits="userSpaceOnUse">
<stop stop-color="#E6E6E6"/>
<stop offset="1" stop-color="#999999"/>
</linearGradient>
<clipPath id="clip0_1754_5500">
<rect width="72" height="72" fill="white"/>
</clipPath>
</defs>
</svg>
