<svg width="39" height="40" viewBox="0 0 39 40" fill="none" xmlns="http://www.w3.org/2000/svg">
<path d="M18.7367 33.3333H3.49933C2.02659 33.3333 0.832764 32.1394 0.832764 30.6667V28H21.2982L18.7367 33.3333Z" fill="#D3DCFB"/>
<path d="M35.502 12.0007V30.6673H3.49933C2.02659 30.6673 0.832764 29.4734 0.832764 28.0006V12.0007L19.5007 5.33398L35.502 12.0007Z" fill="#EBF5FC"/>
<path d="M5.54188 17.3327H4.12524C3.95948 17.3327 3.80051 17.2668 3.6833 17.1496C3.56609 17.0324 3.50024 16.8734 3.50024 16.7077V15.291C3.50024 15.1253 3.56609 14.9663 3.6833 14.8491C3.80051 14.7319 3.95948 14.666 4.12524 14.666H5.54188C5.70764 14.666 5.86662 14.7319 5.98383 14.8491C6.10104 14.9663 6.16688 15.1253 6.16688 15.291V16.7077C6.16688 16.8734 6.10104 17.0324 5.98383 17.1496C5.86662 17.2668 5.70764 17.3327 5.54188 17.3327ZM10.8752 17.3327H9.4586C9.29284 17.3327 9.13387 17.2668 9.01666 17.1496C8.89945 17.0324 8.8336 16.8734 8.8336 16.7077V15.291C8.8336 15.1253 8.89945 14.9663 9.01666 14.8491C9.13387 14.7319 9.29284 14.666 9.4586 14.666H10.8752C11.041 14.666 11.2 14.7319 11.3172 14.8491C11.4344 14.9663 11.5002 15.1253 11.5002 15.291V16.7077C11.5002 16.8734 11.4344 17.0324 11.3172 17.1496C11.2 17.2668 11.041 17.3327 10.8752 17.3327ZM16.2085 17.3327H14.7919C14.6261 17.3327 14.4672 17.2668 14.3499 17.1496C14.2327 17.0324 14.1669 16.8734 14.1669 16.7077V15.291C14.1669 15.1253 14.2327 14.9663 14.3499 14.8491C14.4672 14.7319 14.6261 14.666 14.7919 14.666H16.2085C16.3743 14.666 16.5333 14.7319 16.6505 14.8491C16.7677 14.9663 16.8335 15.1253 16.8335 15.291V16.7077C16.8335 16.8734 16.7677 17.0324 16.6505 17.1496C16.5333 17.2668 16.3743 17.3327 16.2085 17.3327ZM21.5419 17.3327H20.1252C19.9595 17.3327 19.8005 17.2668 19.6833 17.1496C19.5661 17.0324 19.5002 16.8734 19.5002 16.7077V15.291C19.5002 15.1253 19.5661 14.9663 19.6833 14.8491C19.8005 14.7319 19.9595 14.666 20.1252 14.666H21.5419C21.7076 14.666 21.8666 14.7319 21.9838 14.8491C22.101 14.9663 22.1669 15.1253 22.1669 15.291V16.7077C22.1669 16.8734 22.101 17.0324 21.9838 17.1496C21.8666 17.2668 21.7076 17.3327 21.5419 17.3327ZM26.8743 17.3327H25.4577C25.2919 17.3327 25.1329 17.2668 25.0157 17.1496C24.8985 17.0324 24.8327 16.8734 24.8327 16.7077V15.291C24.8327 15.1253 24.8985 14.9663 25.0157 14.8491C25.1329 14.7319 25.2919 14.666 25.4577 14.666H26.8743C27.0401 14.666 27.199 14.7319 27.3162 14.8491C27.4335 14.9663 27.4993 15.1253 27.4993 15.291V16.7077C27.4993 16.8734 27.4335 17.0324 27.3162 17.1496C27.199 17.2668 27.0401 17.3327 26.8743 17.3327ZM32.2077 17.3327H30.791C30.6253 17.3327 30.4663 17.2668 30.3491 17.1496C30.2319 17.0324 30.166 16.8734 30.166 16.7077V15.291C30.166 15.1253 30.2319 14.9663 30.3491 14.8491C30.4663 14.7319 30.6253 14.666 30.791 14.666H32.2077C32.3734 14.666 32.5324 14.7319 32.6496 14.8491C32.7668 14.9663 32.8327 15.1253 32.8327 15.291V16.7077C32.8327 16.8734 32.7668 17.0324 32.6496 17.1496C32.5324 17.2668 32.3734 17.3327 32.2077 17.3327ZM5.54188 22.6659H4.12524C3.95948 22.6659 3.80051 22.6001 3.6833 22.4829C3.56609 22.3657 3.50024 22.2067 3.50024 22.0409V20.6243C3.50024 20.4585 3.56609 20.2996 3.6833 20.1824C3.80051 20.0651 3.95948 19.9993 4.12524 19.9993H5.54188C5.70764 19.9993 5.86662 20.0651 5.98383 20.1824C6.10104 20.2996 6.16688 20.4585 6.16688 20.6243V22.0409C6.16688 22.2067 6.10104 22.3657 5.98383 22.4829C5.86662 22.6001 5.70764 22.6659 5.54188 22.6659ZM10.8752 22.6659H9.4586C9.29284 22.6659 9.13387 22.6001 9.01666 22.4829C8.89945 22.3657 8.8336 22.2067 8.8336 22.0409V20.6243C8.8336 20.4585 8.89945 20.2996 9.01666 20.1824C9.13387 20.0651 9.29284 19.9993 9.4586 19.9993H10.8752C11.041 19.9993 11.2 20.0651 11.3172 20.1824C11.4344 20.2996 11.5002 20.4585 11.5002 20.6243V22.0409C11.5002 22.2067 11.4344 22.3657 11.3172 22.4829C11.2 22.6001 11.041 22.6659 10.8752 22.6659ZM16.2085 22.6659H14.7919C14.6261 22.6659 14.4672 22.6001 14.3499 22.4829C14.2327 22.3657 14.1669 22.2067 14.1669 22.0409V20.6243C14.1669 20.4585 14.2327 20.2996 14.3499 20.1824C14.4672 20.0651 14.6261 19.9993 14.7919 19.9993H16.2085C16.3743 19.9993 16.5333 20.0651 16.6505 20.1824C16.7677 20.2996 16.8335 20.4585 16.8335 20.6243V22.0409C16.8335 22.2067 16.7677 22.3657 16.6505 22.4829C16.5333 22.6001 16.3743 22.6659 16.2085 22.6659ZM22.1669 22.6659V20.6659C22.1669 20.5784 22.1496 20.4917 22.1161 20.4108C22.0826 20.3299 22.0335 20.2565 21.9716 20.1946C21.9097 20.1326 21.8362 20.0835 21.7554 20.05C21.6745 20.0165 21.5878 19.9993 21.5002 19.9993H20.1669C19.9901 19.9993 19.8205 20.0695 19.6955 20.1946C19.5705 20.3196 19.5002 20.4891 19.5002 20.6659V21.9993C19.5002 22.1761 19.5705 22.3457 19.6955 22.4707C19.8205 22.5957 19.9901 22.6659 20.1669 22.6659H22.1669ZM5.54188 27.9993H4.12524C3.95948 27.9993 3.80051 27.9334 3.6833 27.8162C3.56609 27.699 3.50024 27.5401 3.50024 27.3743V25.9577C3.50024 25.7919 3.56609 25.6329 3.6833 25.5157C3.80051 25.3985 3.95948 25.3327 4.12524 25.3327H5.54188C5.70764 25.3327 5.86662 25.3985 5.98383 25.5157C6.10104 25.6329 6.16688 25.7919 6.16688 25.9577V27.3743C6.16688 27.5401 6.10104 27.699 5.98383 27.8162C5.86662 27.9334 5.70764 27.9993 5.54188 27.9993ZM10.8752 27.9993H9.4586C9.29284 27.9993 9.13387 27.9334 9.01666 27.8162C8.89945 27.699 8.8336 27.5401 8.8336 27.3743V25.9577C8.8336 25.7919 8.89945 25.6329 9.01666 25.5157C9.13387 25.3985 9.29284 25.3327 9.4586 25.3327H10.8752C11.041 25.3327 11.2 25.3985 11.3172 25.5157C11.4344 25.6329 11.5002 25.7919 11.5002 25.9577V27.3743C11.5002 27.5401 11.4344 27.699 11.3172 27.8162C11.2 27.9334 11.041 27.9993 10.8752 27.9993ZM16.2085 27.9993H14.7919C14.6261 27.9993 14.4672 27.9334 14.3499 27.8162C14.2327 27.699 14.1669 27.5401 14.1669 27.3743V25.9577C14.1669 25.7919 14.2327 25.6329 14.3499 25.5157C14.4672 25.3985 14.6261 25.3327 14.7919 25.3327H16.2085C16.3743 25.3327 16.5333 25.3985 16.6505 25.5157C16.7677 25.6329 16.8335 25.7919 16.8335 25.9577V27.3743C16.8335 27.5401 16.7677 27.699 16.6505 27.8162C16.5333 27.9334 16.3743 27.9993 16.2085 27.9993Z" fill="#3C58A0"/>
<path d="M32.189 14.666H30.8101C30.7266 14.666 30.6472 14.6824 30.574 14.7112C30.6942 14.7586 30.7973 14.841 30.8701 14.9477C30.9428 15.0545 30.9817 15.1807 30.9817 15.3098V16.6887C30.9817 16.9609 30.8126 17.1931 30.574 17.2873C30.6472 17.3162 30.7266 17.3327 30.8101 17.3327H32.189C32.3597 17.3327 32.5235 17.2648 32.6443 17.1441C32.765 17.0233 32.8329 16.8596 32.8329 16.6888V15.3099C32.8329 15.1392 32.765 14.9754 32.6443 14.8546C32.5235 14.7339 32.3598 14.666 32.189 14.666ZM26.8556 14.666H25.4767C25.3933 14.666 25.3138 14.6824 25.2406 14.7112C25.3608 14.7586 25.464 14.841 25.5367 14.9477C25.6094 15.0545 25.6483 15.1807 25.6484 15.3098V16.6887C25.6484 16.9609 25.4792 17.1931 25.2406 17.2873C25.3138 17.3162 25.3933 17.3327 25.4767 17.3327H26.8556C26.9402 17.3327 27.0239 17.316 27.102 17.2837C27.1801 17.2513 27.2511 17.2039 27.3109 17.1441C27.3707 17.0843 27.4181 17.0133 27.4505 16.9352C27.4828 16.8571 27.4995 16.7734 27.4995 16.6888V15.3099C27.4995 15.2254 27.4828 15.1416 27.4505 15.0635C27.4181 14.9854 27.3707 14.9144 27.3109 14.8546C27.2511 14.7948 27.1801 14.7474 27.102 14.715C27.0239 14.6827 26.9402 14.666 26.8556 14.666ZM21.5232 14.666H20.1443C20.0609 14.666 19.9814 14.6824 19.9082 14.7112C20.1469 14.8055 20.316 15.0377 20.316 15.3098V16.6887C20.316 16.9609 20.1469 17.1931 19.9082 17.2873C19.9814 17.3162 20.0609 17.3327 20.1443 17.3327H21.5232C21.694 17.3327 21.8577 17.2648 21.9785 17.1441C22.0992 17.0233 22.1671 16.8596 22.1671 16.6888V15.3099C22.1671 15.1392 22.0992 14.9754 21.9785 14.8546C21.8577 14.7339 21.694 14.666 21.5232 14.666ZM16.1898 14.666H14.8109C14.7275 14.666 14.648 14.6824 14.5748 14.7112C14.8135 14.8055 14.9827 15.0377 14.9827 15.3098V16.6887C14.9827 16.9609 14.8135 17.1931 14.5748 17.2873C14.648 17.3162 14.7275 17.3327 14.8109 17.3327H16.1898C16.3606 17.3327 16.5244 17.2648 16.6451 17.1441C16.7659 17.0233 16.8337 16.8596 16.8337 16.6888V15.3099C16.8337 15.1392 16.7659 14.9754 16.6451 14.8546C16.5244 14.7339 16.3606 14.666 16.1898 14.666ZM10.8565 14.666H9.47758C9.39414 14.666 9.31469 14.6824 9.24148 14.7112C9.36167 14.7586 9.46484 14.841 9.53756 14.9477C9.61028 15.0545 9.64918 15.1807 9.64922 15.3098V16.6887C9.64922 16.9609 9.48008 17.1931 9.24148 17.2873C9.31469 17.3162 9.39414 17.3327 9.47758 17.3327H10.8565C11.0272 17.3327 11.191 17.2648 11.3118 17.1441C11.4325 17.0233 11.5004 16.8596 11.5004 16.6888V15.3099C11.5004 15.1391 11.4326 14.9754 11.3118 14.8546C11.191 14.7339 11.0273 14.666 10.8565 14.666ZM5.5232 14.666H4.1443C4.06086 14.666 3.98141 14.6824 3.9082 14.7112C4.14688 14.8055 4.31602 15.0377 4.31602 15.3098V16.6887C4.31602 16.9609 4.14688 17.1931 3.9082 17.2873C3.98141 17.3162 4.06086 17.3327 4.1443 17.3327H5.5232C5.69396 17.3327 5.85773 17.2648 5.97849 17.1441C6.09924 17.0233 6.16709 16.8596 6.16711 16.6888V15.3099C6.16709 15.1392 6.09924 14.9754 5.97849 14.8546C5.85774 14.7339 5.69397 14.666 5.5232 14.666ZM5.5232 19.9994H4.1443C4.06086 19.9994 3.98141 20.0158 3.9082 20.0446C4.14688 20.1388 4.31602 20.371 4.31602 20.6432V22.0222C4.31602 22.2944 4.14688 22.5266 3.9082 22.6208C3.98141 22.6497 4.06086 22.6661 4.1443 22.6661H5.5232C5.69396 22.6661 5.85773 22.5983 5.97849 22.4775C6.09924 22.3568 6.16709 22.193 6.16711 22.0223V20.6433C6.16709 20.4725 6.09924 20.3087 5.97849 20.188C5.85774 20.0672 5.69397 19.9994 5.5232 19.9994ZM5.5232 25.3327H4.1443C4.06086 25.3327 3.98141 25.3491 3.9082 25.378C4.14688 25.4722 4.31602 25.7044 4.31602 25.9766V27.3555C4.31602 27.6277 4.14688 27.8599 3.9082 27.9541C3.98141 27.983 4.06086 27.9995 4.1443 27.9995H5.5232C5.69396 27.9995 5.85773 27.9316 5.97849 27.8109C6.09924 27.6901 6.16709 27.5264 6.16711 27.3556V25.9766C6.16709 25.8059 6.09924 25.6421 5.97849 25.5214C5.85774 25.4006 5.69397 25.3328 5.5232 25.3327ZM10.8565 19.9994H9.47758C9.39414 19.9994 9.31469 20.0158 9.24148 20.0446C9.36167 20.0919 9.46484 20.1743 9.53756 20.2811C9.61028 20.3879 9.64918 20.514 9.64922 20.6432V22.0222C9.64922 22.2944 9.48008 22.5266 9.24148 22.6208C9.31469 22.6497 9.39414 22.6661 9.47758 22.6661H10.8565C11.0272 22.6661 11.191 22.5983 11.3118 22.4775C11.4325 22.3568 11.5004 22.193 11.5004 22.0223V20.6433C11.5004 20.4725 11.4326 20.3087 11.3118 20.188C11.191 20.0672 11.0273 19.9994 10.8565 19.9994ZM10.8565 25.3327H9.47758C9.39414 25.3327 9.31469 25.3491 9.24148 25.378C9.36167 25.4253 9.46484 25.5077 9.53756 25.6145C9.61028 25.7212 9.64918 25.8474 9.64922 25.9766V27.3555C9.64922 27.6277 9.48008 27.8599 9.24148 27.9541C9.31469 27.983 9.39414 27.9995 9.47758 27.9995H10.8565C11.0272 27.9995 11.191 27.9316 11.3118 27.8109C11.4325 27.6901 11.5004 27.5264 11.5004 27.3556V25.9766C11.5004 25.8921 11.4838 25.8083 11.4514 25.7302C11.419 25.6521 11.3716 25.5811 11.3118 25.5213C11.252 25.4615 11.181 25.4141 11.1029 25.3817C11.0248 25.3494 10.941 25.3327 10.8565 25.3327ZM16.1898 19.9994H14.8109C14.7275 19.9994 14.648 20.0158 14.5748 20.0446C14.8135 20.1388 14.9827 20.371 14.9827 20.6432V22.0222C14.9827 22.2944 14.8135 22.5266 14.5748 22.6208C14.648 22.6497 14.7275 22.6661 14.8109 22.6661H16.1898C16.3606 22.6661 16.5244 22.5983 16.6451 22.4775C16.7659 22.3568 16.8337 22.193 16.8337 22.0223V20.6433C16.8337 20.4725 16.7659 20.3087 16.6451 20.188C16.5244 20.0672 16.3606 19.9994 16.1898 19.9994ZM22.167 22.666V20.6432C22.167 20.5586 22.1504 20.4749 22.118 20.3968C22.0857 20.3187 22.0382 20.2477 21.9784 20.1879C21.9186 20.1281 21.8477 20.0807 21.7695 20.0484C21.6914 20.016 21.6077 19.9994 21.5231 19.9994H20.1442C20.0608 19.9994 19.9813 20.0158 19.9081 20.0446C20.1468 20.1388 20.3159 20.371 20.3159 20.6432V22.0222C20.3159 22.2944 20.1468 22.5266 19.9081 22.6208C19.9813 22.6497 20.0608 22.6661 20.1442 22.6661H22.167V22.666ZM16.1898 25.3327H14.8109C14.7275 25.3327 14.648 25.3491 14.5748 25.378C14.8135 25.4722 14.9827 25.7044 14.9827 25.9766V27.3555C14.9827 27.6277 14.8135 27.8599 14.5748 27.9541C14.648 27.983 14.7275 27.9995 14.8109 27.9995H16.1898C16.3606 27.9995 16.5244 27.9316 16.6451 27.8109C16.7659 27.6901 16.8337 27.5264 16.8337 27.3556V25.9766C16.8337 25.8921 16.8171 25.8084 16.7847 25.7302C16.7524 25.6521 16.7049 25.5811 16.6452 25.5213C16.5854 25.4615 16.5144 25.4141 16.4363 25.3817C16.3581 25.3494 16.2744 25.3327 16.1898 25.3327Z" fill="#2A428C"/>
<path d="M33.6497 11.2285V30.667H35.5021V12.0003L33.6497 11.2285Z" fill="#D3DCFB"/>
<path d="M35.502 11.9993V5.33258C35.502 3.85984 34.3081 2.66602 32.8354 2.66602H3.49933C2.02659 2.66602 0.832764 3.85984 0.832764 5.33258V11.9993H35.502Z" fill="#FF4155"/>
<path d="M9.23529 5.93766H7.49959C7.33951 5.93766 7.18598 5.87406 7.07278 5.76087C6.95959 5.64767 6.896 5.49415 6.896 5.33406C6.896 5.17398 6.95959 5.02045 7.07278 4.90726C7.18598 4.79406 7.33951 4.73047 7.49959 4.73047H9.23529C9.39538 4.73047 9.5489 4.79406 9.6621 4.90726C9.77529 5.02045 9.83889 5.17398 9.83889 5.33406C9.83889 5.49415 9.77529 5.64767 9.6621 5.76087C9.5489 5.87406 9.39538 5.93766 9.23529 5.93766ZM13.4995 5.93766H11.7638C11.6037 5.93766 11.4502 5.87406 11.337 5.76087C11.2238 5.64767 11.1602 5.49415 11.1602 5.33406C11.1602 5.17398 11.2238 5.02045 11.337 4.90726C11.4502 4.79406 11.6037 4.73047 11.7638 4.73047H13.4995C13.8329 4.73047 14.1031 5.0007 14.1031 5.33406C14.1031 5.66742 13.8329 5.93766 13.4995 5.93766ZM24.5695 5.93766H22.8337C22.6736 5.93766 22.5201 5.87406 22.4069 5.76087C22.2937 5.64767 22.2301 5.49415 22.2301 5.33406C22.2301 5.17398 22.2937 5.02045 22.4069 4.90726C22.5201 4.79406 22.6736 4.73047 22.8337 4.73047H24.5695C24.9029 4.73047 25.1731 5.0007 25.1731 5.33406C25.1731 5.66742 24.9029 5.93766 24.5695 5.93766ZM28.8338 5.93766H27.098C26.9379 5.93766 26.7844 5.87406 26.6712 5.76087C26.558 5.64767 26.4944 5.49415 26.4944 5.33406C26.4944 5.17398 26.558 5.02045 26.6712 4.90726C26.7844 4.79406 26.9379 4.73047 27.098 4.73047H28.8338C28.9939 4.73047 29.1474 4.79406 29.2606 4.90726C29.3738 5.02045 29.4374 5.17398 29.4374 5.33406C29.4374 5.49415 29.3738 5.64767 29.2606 5.76087C29.1474 5.87406 28.9939 5.93766 28.8338 5.93766Z" fill="#E80054"/>
<path d="M12.166 5C12.166 5.92047 11.4199 6.66664 10.4994 6.66664C9.57894 6.66664 8.83276 5.92047 8.83276 5V1.66664C8.83269 0.746172 9.57886 0 10.4993 0C11.4198 0 12.166 0.746172 12.166 1.66664V5H12.166ZM27.5003 5C27.5003 5.92047 26.7541 6.66664 25.8336 6.66664C24.9132 6.66664 24.1669 5.92047 24.1669 5V1.66664C24.1669 0.746172 24.9131 0 25.8335 0C26.754 0 27.5002 0.746172 27.5002 1.66664V5H27.5003Z" fill="#EBF5FC"/>
<path d="M25.8336 0C25.4914 0 25.1736 0.103438 24.9089 0.280313C25.3562 0.579219 25.651 1.08836 25.651 1.66672V5C25.651 5.57828 25.3562 6.0875 24.9089 6.38641C25.1825 6.56953 25.5044 6.66711 25.8336 6.66672C26.7541 6.66672 27.5003 5.92055 27.5003 5.00008V1.66664C27.5003 0.746172 26.7542 0 25.8336 0ZM10.4994 0C10.1572 0 9.83939 0.103438 9.57471 0.280313C10.022 0.579219 10.3167 1.08836 10.3167 1.66672V5C10.3167 5.57828 10.022 6.0875 9.57471 6.38641C9.84829 6.56953 10.1702 6.66711 10.4994 6.66672C11.4199 6.66672 12.166 5.92055 12.166 5.00008V1.66664C12.1661 0.746172 11.4199 0 10.4994 0Z" fill="#D3DCFB"/>
<path d="M32.8354 2.66602H30.9836C32.4564 2.66602 33.6502 3.85984 33.6502 5.33258V11.9994H35.5019V5.33266C35.502 3.85992 34.3081 2.66602 32.8354 2.66602Z" fill="#E80054"/>
<path d="M0.832764 8.73047H35.5021V9.93773H0.832764V8.73047Z" fill="#E80054"/>
<path d="M28.1675 40C33.6903 40 38.1675 35.5228 38.1675 30C38.1675 24.4772 33.6903 20 28.1675 20C22.6446 20 18.1675 24.4772 18.1675 30C18.1675 35.5228 22.6446 40 28.1675 40Z" fill="#4FABF7"/>
<path d="M28.1673 37.3327C32.2174 37.3327 35.5007 34.0495 35.5007 29.9994C35.5007 25.9493 32.2174 22.666 28.1673 22.666C24.1172 22.666 20.834 25.9493 20.834 29.9994C20.834 34.0495 24.1172 37.3327 28.1673 37.3327Z" fill="#EBF5FC"/>
<path d="M28.1676 29.271C28.0883 29.271 28.0098 29.2554 27.9366 29.2251C27.8633 29.1948 27.7968 29.1503 27.7407 29.0942C27.6847 29.0382 27.6402 28.9717 27.6099 28.8984C27.5796 28.8252 27.564 28.7467 27.564 28.6674V25.3341C27.564 25.174 27.6276 25.0205 27.7408 24.9073C27.8539 24.7941 28.0075 24.7305 28.1676 24.7305C28.3276 24.7305 28.4812 24.7941 28.5944 24.9073C28.7076 25.0205 28.7712 25.174 28.7712 25.3341V28.6674C28.7712 28.8275 28.7076 28.981 28.5944 29.0942C28.4812 29.2074 28.3276 29.271 28.1676 29.271ZM31.5009 30.6044H29.5008C29.3408 30.6044 29.1872 30.5408 29.074 30.4276C28.9608 30.3144 28.8972 30.1609 28.8972 30.0008C28.8972 29.8407 28.9608 29.6872 29.074 29.574C29.1872 29.4608 29.3408 29.3972 29.5008 29.3972H31.5009C31.661 29.3972 31.8145 29.4608 31.9277 29.574C32.0409 29.6872 32.1045 29.8407 32.1045 30.0008C32.1045 30.1609 32.0409 30.3144 31.9277 30.4276C31.8145 30.5408 31.661 30.6044 31.5009 30.6044Z" fill="#3C58A0"/>
<path d="M28.1676 20C27.8555 20 27.5469 20.0151 27.242 20.043C32.3309 20.5102 36.3164 24.7893 36.3164 30C36.3164 35.2107 32.3308 39.4898 27.2419 39.957C27.5468 39.9849 27.8554 40 28.1675 40C33.6903 40 38.1675 35.5228 38.1675 30C38.1675 24.4772 33.6904 20 28.1676 20Z" fill="#1886EA"/>
<path d="M28.1674 22.666C27.8541 22.666 27.5454 22.6858 27.2424 22.7239C30.8559 23.1787 33.6509 26.2626 33.6509 29.9994C33.6509 33.7362 30.8559 36.8201 27.2424 37.2748C27.5454 37.313 27.8541 37.3327 28.1674 37.3327C32.2174 37.3327 35.5007 34.0495 35.5007 29.9994C35.5007 25.9493 32.2174 22.666 28.1674 22.666Z" fill="#D3DCFB"/>
<path d="M28.1673 31.3327C28.9037 31.3327 29.5007 30.7358 29.5007 29.9994C29.5007 29.263 28.9037 28.666 28.1673 28.666C27.4309 28.666 26.834 29.263 26.834 29.9994C26.834 30.7358 27.4309 31.3327 28.1673 31.3327Z" fill="#FFDD40"/>
</svg>
