<svg width="41" height="40" viewBox="0 0 41 40" fill="none" xmlns="http://www.w3.org/2000/svg">
<g clip-path="url(#clip0_1729_8242)">
<path d="M39.3802 14.5089L27.1446 12.731L21.6726 1.64357C21.194 0.67373 19.8064 0.673262 19.3274 1.64357L13.8555 12.731L1.62 14.5089C0.549923 14.6644 0.120157 15.9838 0.895313 16.7393L9.74899 25.3696L7.65883 37.5557C7.61758 37.7962 7.64443 38.0434 7.73636 38.2694C7.82828 38.4954 7.98161 38.6912 8.17901 38.8346C8.3764 38.978 8.60999 39.0634 8.85335 39.0809C9.09671 39.0985 9.34013 39.0477 9.5561 38.9341L20.5 33.1808C32.4145 39.4444 31.5962 39.0844 32.0523 39.0844C32.8582 39.0844 33.4788 38.3579 33.3412 37.5557L31.2511 25.3696L40.1048 16.7393C40.8791 15.9844 40.4511 14.6646 39.3802 14.5089Z" fill="#F7AC16"/>
<path d="M20.5001 0.914062C20.2561 0.914075 20.0169 0.982345 19.8097 1.11115C19.6024 1.23996 19.4354 1.42418 19.3273 1.64297L13.8555 12.7304L1.62 14.5083C0.549923 14.6638 0.120157 15.9832 0.895313 16.7387L9.74899 25.369L7.65883 37.5551C7.61758 37.7956 7.64443 38.0428 7.73636 38.2688C7.82828 38.4948 7.98161 38.6906 8.17901 38.834C8.3764 38.9774 8.60999 39.0628 8.85335 39.0803C9.09671 39.0979 9.34013 39.0471 9.5561 38.9335L20.5 33.1802H20.5001V0.914062Z" fill="#F2D422"/>
<path d="M1.62 14.5084C0.549923 14.664 0.120157 15.9834 0.895313 16.7388L9.74899 25.3691L7.65883 37.5552C7.61758 37.7957 7.64443 38.0429 7.73636 38.269C7.82828 38.495 7.98161 38.6908 8.17901 38.8342C8.3764 38.9776 8.60999 39.0629 8.85335 39.0805C9.09671 39.0981 9.34013 39.0472 9.5561 38.9337L20.5 33.1803C32.4145 39.444 31.5962 39.084 32.0523 39.084C32.3284 39.084 32.5975 38.9966 32.8209 38.8342L13.8555 12.7305L1.62 14.5084Z" fill="#F7AC16"/>
<path d="M14.4498 23.864C4.96594 14.6194 5.37359 15.1148 5.24633 14.6354C5.19453 14.4428 5.18391 14.2188 5.24024 13.9824L1.62 14.5084C0.549923 14.664 0.120157 15.9834 0.895313 16.7388L9.74899 25.3691L7.65883 37.5553C7.61758 37.7958 7.64443 38.043 7.73636 38.269C7.82828 38.4951 7.98161 38.6908 8.17901 38.8342C8.3764 38.9777 8.60999 39.063 8.85335 39.0806C9.09671 39.0982 9.34013 39.0473 9.5561 38.9338L12.7738 37.2421C12.6098 37.0945 12.4858 36.9078 12.4133 36.6994C12.3409 36.491 12.3225 36.2676 12.3597 36.0501L14.4498 23.864Z" fill="#F48B19"/>
<path d="M0.895378 16.7389L9.74905 25.3692L7.65889 37.5553C7.61764 37.7958 7.64449 38.043 7.73642 38.269C7.82835 38.4951 7.98168 38.6908 8.17907 38.8342C8.37647 38.9777 8.61005 39.063 8.85341 39.0806C9.09677 39.0982 9.3402 39.0473 9.55616 38.9338L20.5001 33.1804C32.4146 39.4441 31.5962 39.0841 32.0523 39.0841C32.8583 39.0841 33.4788 38.3575 33.3412 37.5553L31.2512 25.3692L0.564362 15.3984C0.411471 15.9465 0.564518 16.4166 0.895378 16.7389Z" fill="#F2D422"/>
<path d="M0.895378 16.7389L9.74905 25.3692L7.65889 37.5553C7.61764 37.7958 7.64449 38.043 7.73642 38.269C7.82835 38.4951 7.98168 38.6908 8.17907 38.8342C8.37647 38.9777 8.61005 39.063 8.85341 39.0806C9.09677 39.0982 9.3402 39.0473 9.55616 38.9338L12.7739 37.2421C12.6098 37.0945 12.4858 36.9078 12.4134 36.6994C12.341 36.491 12.3225 36.2676 12.3598 36.0501L14.4499 23.864L8.36569 17.9333L0.564362 15.3984C0.411471 15.9465 0.564518 16.4166 0.895378 16.7389Z" fill="#EFB616"/>
<path d="M7.65872 37.5552C7.61746 37.7957 7.64432 38.0429 7.73625 38.269C7.82817 38.495 7.9815 38.6908 8.1789 38.8342C8.37629 38.9776 8.60988 39.0629 8.85324 39.0805C9.0966 39.0981 9.34002 39.0472 9.55598 38.9337L20.4999 33.1803C32.4144 39.444 31.5961 39.084 32.0522 39.084C32.8581 39.084 33.4786 38.3574 33.3411 37.5552L31.251 25.3691L40.1047 16.7388C40.2794 16.5685 40.4029 16.3527 40.4614 16.1158C40.5199 15.879 40.5109 15.6305 40.4356 15.3984L9.74887 25.3691L7.65872 37.5552Z" fill="#F7AC16"/>
<path d="M7.65872 37.5556C7.61746 37.7961 7.64432 38.0433 7.73625 38.2693C7.82817 38.4954 7.9815 38.6911 8.1789 38.8346C8.37629 38.978 8.60988 39.0633 8.85324 39.0809C9.0966 39.0985 9.34002 39.0476 9.55598 38.9341L12.7737 37.2424C12.6097 37.0949 12.4856 36.9081 12.4132 36.6997C12.3408 36.4913 12.3224 36.2679 12.3596 36.0504L14.4497 23.8643L14.4326 23.8477L9.74887 25.3695L7.65872 37.5556Z" fill="#F48B19"/>
<path d="M9.55606 38.9336L20.4999 33.1802C32.4144 39.4439 31.5961 39.0839 32.0522 39.0839C32.8581 39.0839 33.4786 38.3573 33.3411 37.5552L31.251 25.3691L40.1047 16.7387C40.879 15.9838 40.4509 14.6641 39.38 14.5084L27.1444 12.7305L8.17896 38.8341C8.37637 38.9775 8.60995 39.0628 8.85331 39.0804C9.09667 39.098 9.3401 39.0471 9.55606 38.9336Z" fill="#F2D422"/>
<path d="M40.4357 15.3984L20.4999 21.8759L8.17896 38.8343C8.37635 38.9777 8.60993 39.063 8.85327 39.0806C9.09662 39.0982 9.34003 39.0473 9.55599 38.9338L20.4999 33.1804C32.4144 39.4441 31.5961 39.0841 32.0522 39.0841C32.8581 39.0841 33.4786 38.3575 33.3411 37.5553L31.251 25.3692L40.1047 16.7389C40.2794 16.5686 40.403 16.3528 40.4615 16.1159C40.52 15.879 40.511 15.6305 40.4357 15.3984Z" fill="#F7AC16"/>
<path d="M31.2511 25.3683L20.4999 21.875L8.17896 38.8334C8.37635 38.9768 8.60993 39.0621 8.85327 39.0796C9.09662 39.0972 9.34003 39.0464 9.55599 38.9328L20.4999 33.1795C32.4144 39.4431 31.5961 39.0831 32.0522 39.0831C32.8581 39.0831 33.4786 38.3566 33.3411 37.5544L31.2511 25.3683Z" fill="#F2D422"/>
<path d="M8.17896 38.8334C8.37635 38.9768 8.60993 39.0621 8.85327 39.0796C9.09662 39.0972 9.34003 39.0464 9.55599 38.9328L20.4999 33.1795C32.4144 39.4431 31.5961 39.0831 32.0522 39.0831C32.3283 39.0832 32.5974 38.9957 32.8208 38.8334L20.4999 21.875L8.17896 38.8334Z" fill="#F7AC16"/>
<path d="M20.5 21.8752L20.4999 21.875L8.17896 38.8334C8.37635 38.9768 8.60993 39.0621 8.85327 39.0796C9.09662 39.0972 9.34003 39.0464 9.55599 38.9328L20.4999 33.1795H20.5V21.8752Z" fill="#F2D422"/>
<path d="M13.0264 32.1621L8.17896 38.834C8.37635 38.9774 8.60993 39.0627 8.85327 39.0803C9.09662 39.0978 9.34003 39.047 9.55599 38.9334L12.7737 37.2418C12.6097 37.0942 12.4856 36.9075 12.4132 36.6991C12.3408 36.4906 12.3224 36.2673 12.3596 36.0498L13.0264 32.1621Z" fill="#EFB616"/>
</g>
<defs>
<clipPath id="clip0_1729_8242">
<rect width="40" height="40" fill="white" transform="translate(0.5)"/>
</clipPath>
</defs>
</svg>
