<svg width="41" height="40" viewBox="0 0 41 40" fill="none" xmlns="http://www.w3.org/2000/svg">
<path fill-rule="evenodd" clip-rule="evenodd" d="M22.5585 18.0918H39.0124C39.3578 18.0918 39.6406 18.3746 39.6406 18.7199V33.1551C39.6406 33.5004 39.3578 33.7832 39.0124 33.7832H22.5585C22.2132 33.7832 21.9304 33.5004 21.9304 33.1551V18.7199C21.9304 18.3746 22.2132 18.0918 22.5585 18.0918Z" fill="#FCD770"/>
<path fill-rule="evenodd" clip-rule="evenodd" d="M33.5711 18.043V24.1164L30.7851 22.2805L28 24.1164V18.043H33.5711ZM21.7562 31.9945L13.1648 33.8938C12.8758 33.9578 12.5992 33.8484 12.432 33.6039L10.5414 30.8367L8.57028 26.1797C8.554 26.1415 8.52322 26.1113 8.48469 26.0958C8.44616 26.0802 8.40305 26.0806 8.36482 26.0969C8.32692 26.1133 8.297 26.144 8.28151 26.1823C8.26601 26.2206 8.26619 26.2634 8.282 26.3016L10.2039 30.8391L3.20544 34.4141L1.57575 25.4875C1.48669 24.9984 1.53825 24.4984 1.74216 24.0438C1.94607 23.5891 2.28591 23.218 2.71013 22.9594L7.28513 20.1719L9.68122 23.5055C9.69576 23.5256 9.7149 23.542 9.73705 23.5533C9.75919 23.5646 9.78371 23.5704 9.80857 23.5703C9.83278 23.5703 9.85622 23.5648 9.8781 23.5539L13.1664 21.9086L15.2687 25.5688C15.2968 25.6172 15.3476 25.6469 15.4039 25.6469C15.4109 25.6469 15.4179 25.6461 15.425 25.6453C15.4883 25.6367 15.5398 25.5914 15.5554 25.5297L16.514 21.775L18.7914 23.5383C18.8187 23.5594 18.8523 23.5711 18.8867 23.5711C18.9054 23.5711 18.9242 23.5672 18.9422 23.5609C18.9922 23.5422 19.0297 23.4984 19.0406 23.4453L19.8109 19.6234L21.7562 20.9719V31.9945Z" fill="#FC6E51"/>
<path fill-rule="evenodd" clip-rule="evenodd" d="M17.2743 18.809L19.5 19.5879L18.7844 23.1387L16.6 21.4473L17.2743 18.809ZM9.85786 23.2168L7.55396 20.0098L10.011 18.5137L12.9125 21.6879L9.85786 23.2168Z" fill="#FCD770"/>
<path fill-rule="evenodd" clip-rule="evenodd" d="M16.2618 21.5066L15.3493 25.0809L13.5165 21.891C13.511 21.8809 13.504 21.8715 13.4962 21.8629L10.2196 18.2777L11.0852 15.9668L11.386 16.0957C11.9907 16.3551 12.6352 16.477 13.2915 16.477C13.3391 16.477 13.386 16.4762 13.4337 16.4754C13.7399 16.4676 14.0399 16.4465 14.3415 16.3918C14.7493 16.3168 15.1462 16.1895 15.5212 16.0121L15.8891 15.8379L15.9626 16.2379C15.9641 16.248 15.9673 16.259 15.9719 16.2684L17.0001 18.6176L16.2626 21.5043L16.2618 21.5066Z" fill="#F0D0B4"/>
<path fill-rule="evenodd" clip-rule="evenodd" d="M14.2844 16.084C13.9992 16.1363 13.7141 16.1551 13.4242 16.1629C11.9031 16.2035 10.5547 15.5379 9.66252 14.3059C8.70861 12.9895 8.04064 11.3027 7.53283 9.76758L7.39689 9.35664H13.1836C14.1961 9.35664 15.0906 8.96758 15.7813 8.22695L17.732 6.13477L17.857 6.7207C18.2461 8.5418 18.2695 10.3449 17.9586 12.1809L17.957 12.1887L17.9555 12.1965C17.8766 12.548 17.7774 12.8973 17.6508 13.2355C17.0961 14.7199 15.8461 15.798 14.2844 16.084ZM15.1414 13.0223C14.486 13.8949 13.3031 13.9613 12.3797 13.491C12.3024 13.452 12.2086 13.4816 12.1695 13.559C12.1507 13.5958 12.1471 13.6386 12.1597 13.6779C12.1723 13.7173 12.2 13.7501 12.2367 13.7691C12.6438 13.977 13.0938 14.0973 13.5524 14.0973C14.2774 14.0973 14.9516 13.7949 15.3906 13.2105C15.4422 13.1418 15.4289 13.0441 15.3594 12.9918C15.2906 12.9395 15.193 12.9535 15.1414 13.0223ZM7.37502 10.2746C7.58595 10.8848 7.8172 11.4895 8.07658 12.0809L8.22814 12.4262L7.86095 12.5105C7.21564 12.659 6.52658 12.3402 6.29455 11.7051C6.17424 11.3746 6.19924 11.0168 6.3547 10.702C6.48049 10.4473 6.68127 10.2402 6.92892 10.102L7.2547 9.92148L7.37502 10.2746Z" fill="#F0D0B4"/>
<path fill-rule="evenodd" clip-rule="evenodd" d="M7.22111 8.77223C6.84298 7.3652 6.71642 5.78864 7.28361 4.41364C7.81564 3.12536 8.84923 2.28161 10.1563 1.83239C11.4235 1.39645 12.8914 1.36677 14.182 1.71208C15.2555 1.99958 16.4516 2.63005 16.9016 3.70895C17.0649 4.09958 17.2149 4.49489 17.3508 4.89567L17.4906 5.30895H15.4031C14.2492 5.30895 13.2406 5.81677 12.5524 6.74333L10.8438 9.04411H7.22111V8.77223Z" fill="#FC6E51"/>
<path fill-rule="evenodd" clip-rule="evenodd" d="M12.8039 6.93086C13.4367 6.07852 14.3422 5.62305 15.4039 5.62305H17.782L15.5531 8.01445C14.9187 8.6957 14.1148 9.04492 13.1836 9.04492H11.2344L12.8039 6.93086ZM17.9109 5.62305H19.0414C20.0531 5.62305 20.9313 6.04336 21.5656 6.83164L22.1156 7.51602C22.2031 7.62695 22.2266 7.75977 22.1844 7.8918C22.1438 8.02617 22.0469 8.12227 21.9094 8.16211L18.4828 9.16758L18.4586 8.77695C18.4 7.84258 18.2477 6.91992 18.0125 6.01367L17.9109 5.62305Z" fill="#FCD770"/>
<path fill-rule="evenodd" clip-rule="evenodd" d="M13.2328 34.1996L26.1102 31.3527C26.3696 31.2957 26.6149 31.3504 26.825 31.5137C27.036 31.6777 27.1524 31.9012 27.1586 32.1691L27.1602 32.2223C27.1735 32.5934 26.9594 32.9754 26.5789 33.066L22.411 34.0559C22.3731 34.0645 22.3399 34.087 22.3179 34.119C22.2959 34.151 22.2867 34.1901 22.2922 34.2285C22.2975 34.2668 22.3169 34.3018 22.3464 34.3268C22.376 34.3517 22.4137 34.3649 22.4524 34.3637L29.9133 34.1035L30.275 34.102L30.2985 34.1059C30.4782 34.1324 30.6321 34.2129 30.7625 34.3395C30.9391 34.5113 31.0266 34.7199 31.0242 34.9652V34.9824C31.0196 35.4285 30.6844 35.8004 30.2367 35.8324L23.7446 36.298C22.0547 36.4191 20.3867 36.6996 18.7367 37.0816C17.1774 37.4426 15.643 37.8918 14.1133 38.3605C13.6688 38.4965 13.2649 38.5082 12.8055 38.5176L12.6164 38.5223C11.5891 38.5504 10.7922 38.0152 10.0211 37.3965L5.36487 33.6637L10.3555 31.1152L12.1766 33.7816C12.4149 34.1332 12.8164 34.2918 13.2328 34.1996Z" fill="#F0D0B4"/>
<path fill-rule="evenodd" clip-rule="evenodd" d="M36.9719 30.6771H31.1711C30.9125 30.6771 30.7024 30.8865 30.7024 31.1451C30.7024 31.4044 30.9125 31.6138 31.1711 31.6138H36.9719C37.2305 31.6138 37.4406 31.4044 37.4406 31.1451C37.4406 30.8873 37.2305 30.6771 36.9719 30.6771ZM36.9719 28.3388H32.8164C32.5578 28.3388 32.3477 28.549 32.3477 28.8076C32.3477 29.0662 32.5578 29.2763 32.8164 29.2763H36.9719C37.2305 29.2763 37.4406 29.0662 37.4406 28.8076C37.4406 28.549 37.2305 28.3388 36.9719 28.3388ZM39.1539 33.2748C39.1539 33.3607 39.0797 33.4341 38.9922 33.4341L30.2859 33.4771C30.2258 33.4724 30.1656 33.4693 30.1039 33.4716L26.9875 33.5802C27.4867 33.3435 27.8039 32.8115 27.7844 32.2005L27.782 32.1459C27.7672 31.6959 27.5633 31.2959 27.2078 31.0201C26.8524 30.7443 26.4149 30.6451 25.975 30.7427L22.3813 31.5373V21.9419H27.5133V24.2841C27.5133 24.3688 27.5361 24.4518 27.5795 24.5245C27.6229 24.5972 27.6851 24.6568 27.7595 24.697C27.834 24.7372 27.918 24.7565 28.0026 24.7529C28.0871 24.7492 28.1691 24.7228 28.2399 24.6763L30.768 23.0099L33.2953 24.6763C33.3734 24.7279 33.4633 24.7537 33.5531 24.7537C33.6297 24.7537 33.7063 24.7357 33.7758 24.6982C33.8502 24.6579 33.9124 24.5982 33.9557 24.5254C33.9991 24.4527 34.0219 24.3696 34.0219 24.2849V21.9427H39.1539V33.2748ZM30.2508 34.4146C30.3625 34.431 30.457 34.4794 30.543 34.563C30.6586 34.6755 30.7117 34.8021 30.7102 34.963V34.9787C30.707 35.2677 30.493 35.5005 30.2125 35.5209L23.7203 35.9865C20.1961 36.2388 16.9961 37.1505 14.0203 38.0623C13.607 38.1888 13.25 38.1966 12.7977 38.2052L12.6063 38.2099C11.7406 38.2341 11.0492 37.8216 10.2149 37.1529L5.93595 33.7224L10.2508 31.5185L11.9164 33.9576C12.2289 34.4146 12.7586 34.6248 13.3 34.5052L26.1774 31.6584C26.3469 31.6209 26.4961 31.6544 26.6328 31.7607C26.7703 31.8669 26.8399 32.0029 26.8453 32.1763L26.8469 32.231C26.8547 32.4529 26.7391 32.706 26.5055 32.7615L22.3375 33.7513C22.2242 33.7779 22.1249 33.8458 22.059 33.9417C21.9931 34.0377 21.9654 34.1548 21.9813 34.2701C22.0133 34.5084 22.2227 34.6857 22.4617 34.6755L29.918 34.4162L30.2508 34.4146ZM9.80313 30.6943L7.99454 26.424C7.97053 26.3673 7.95791 26.3065 7.9574 26.245C7.95689 26.1835 7.9685 26.1225 7.99157 26.0655C8.01464 26.0085 8.04871 25.9565 8.09185 25.9127C8.13499 25.8688 8.18634 25.8339 8.24298 25.8099C8.48204 25.7091 8.75704 25.8201 8.85782 26.0584L10.818 30.6873L12.6906 33.4287C12.7852 33.5677 12.9336 33.6263 13.0977 33.5896L21.4438 31.7443V21.1365L20.0234 20.1521L19.3469 23.5084C19.3312 23.5864 19.2958 23.6591 19.2441 23.7197C19.1924 23.7803 19.1262 23.8266 19.0516 23.8544C18.9768 23.8825 18.8961 23.8909 18.8172 23.8788C18.7383 23.8668 18.6638 23.8347 18.6008 23.7857L16.7 22.3138L15.8594 25.6068C15.8362 25.6972 15.7865 25.7786 15.7168 25.8407C15.6471 25.9028 15.5605 25.9426 15.468 25.9552C15.4469 25.9584 15.4258 25.9599 15.4047 25.9599C15.2383 25.9599 15.0828 25.8716 14.9984 25.7248L13.043 22.3209L10.0188 23.8341C9.91913 23.8842 9.80491 23.8971 9.69664 23.8704C9.58836 23.8438 9.49315 23.7794 9.42813 23.6888L7.20157 20.5904L2.87345 23.2271C2.10079 23.6974 1.72188 24.5427 1.8836 25.4326L3.43751 33.9459L9.80313 30.6943ZM8.0047 20.1005L9.95392 18.9138L12.4031 21.5935L9.95626 22.8177L8.0047 20.1005ZM11.2625 16.3826C11.8859 16.6498 12.568 16.7896 13.2914 16.7896C13.3406 16.7896 13.3906 16.7888 13.4414 16.788C13.7125 16.781 14.0383 16.7654 14.3977 16.699C14.8325 16.6195 15.2551 16.4835 15.6547 16.2943C15.6609 16.3279 15.6711 16.3615 15.6852 16.3935L16.6703 18.6443L15.9703 21.3841C15.9695 21.3857 15.9695 21.3873 15.9688 21.3888L15.2367 24.2568L13.7875 21.7341C13.7703 21.7044 13.75 21.6763 13.7266 21.6513L10.5789 18.2076L11.2625 16.3826ZM13.4164 15.8505C13.6516 15.8443 13.9328 15.831 14.2281 15.7771C15.6664 15.513 16.8367 14.5224 17.3586 13.1271C17.4742 12.8177 17.5719 12.4818 17.6508 12.1294C17.9594 10.306 17.9305 8.55914 17.5516 6.78648L16.0094 8.44039C15.2602 9.24429 14.2828 9.66929 13.1836 9.66929H7.8297C8.47345 11.6146 9.15938 13.0779 9.91563 14.1224C10.7508 15.274 11.9945 15.888 13.4164 15.8505ZM7.78985 12.2068C7.5461 11.6498 7.30938 11.0419 7.0797 10.3771C6.88595 10.4849 6.73048 10.6451 6.6336 10.8419C6.51329 11.0849 6.49688 11.3537 6.58673 11.599C6.75938 12.0716 7.28048 12.324 7.78985 12.2068ZM15.4039 5.93492H17.0633L15.3242 7.80054C14.7484 8.41851 14.0281 8.73179 13.1836 8.73179H11.8555L13.0547 7.11617C13.6289 6.34351 14.4414 5.93492 15.4039 5.93492ZM7.53282 8.72945C6.63516 5.43882 7.62813 3.03336 10.2578 2.12945C12.7484 1.27242 15.8969 2.11539 16.6133 3.83101C16.7766 4.2232 16.9242 4.61148 17.0555 4.99742H15.4039C14.1508 4.99742 13.0492 5.55132 12.3024 6.55757L10.6875 8.73179H7.5336C7.5336 8.73101 7.53282 8.73023 7.53282 8.72945ZM18.3149 5.93492C18.5602 6.88101 18.7109 7.81695 18.7703 8.75757L21.8211 7.86226C21.8578 7.85132 21.875 7.83492 21.8859 7.7982C21.8977 7.76148 21.893 7.73804 21.8695 7.70836L21.3219 7.02711C20.7469 6.31226 19.9586 5.93492 19.0414 5.93492H18.3149ZM16.9531 21.3248L17.4922 19.2162L19.1399 19.7927L18.5774 22.5826L16.9531 21.3248ZM22.3813 18.8396V21.0044H27.5133V18.6794H22.5406C22.4547 18.6794 22.3813 18.7529 22.3813 18.8396ZM28.4508 23.4138L30.5094 22.0568C30.586 22.0063 30.6758 21.9795 30.7676 21.9795C30.8594 21.9795 30.9491 22.0063 31.0258 22.0568L33.0844 23.4138V18.6802H28.4508V23.4138ZM38.9945 18.6794H34.0219V21.0044H39.1539V18.8396C39.1539 18.7529 39.0813 18.6794 38.9945 18.6794ZM40.0914 18.8396V33.2748C40.0914 33.8763 39.6008 34.3685 38.9969 34.3716L31.5445 34.4084C31.6141 34.5834 31.65 34.7724 31.6477 34.9724V34.988C31.6399 35.7693 31.0516 36.4005 30.2789 36.456L23.7867 36.9216C20.3609 37.1669 17.2195 38.0623 14.2953 38.9584C13.757 39.1232 13.3 39.1326 12.8172 39.1427C12.7563 39.1443 12.6938 39.1451 12.6305 39.1466C12.6008 39.1474 12.5703 39.1482 12.5406 39.1482C11.3094 39.1482 10.393 38.4974 9.62813 37.8841L5.02032 34.1904L3.84454 34.7904C3.58282 34.9248 3.28126 34.9263 3.0172 34.7959C2.75392 34.6662 2.57188 34.4248 2.51954 34.1357L0.961728 25.6005C0.728134 24.3201 1.27345 23.1037 2.38517 22.4263L9.65782 17.9966L10.393 16.0318C10.4063 15.9966 10.4242 15.9638 10.4445 15.9341C9.9586 15.6037 9.52501 15.181 9.15626 14.6724C8.82188 14.2107 8.50157 13.6755 8.19376 13.0654C7.97735 13.138 7.75782 13.174 7.5422 13.174C6.73751 13.174 5.98985 12.6959 5.70626 11.9216C5.52813 11.4334 5.5586 10.9029 5.7922 10.4279C6.00079 10.0052 6.34923 9.6732 6.78282 9.47945C6.76954 9.43804 6.75704 9.39585 6.74376 9.35367C6.74054 9.34441 6.73767 9.33502 6.73516 9.32554C6.70079 9.21617 6.6672 9.10679 6.6336 8.99507C6.63204 8.99117 6.63126 8.98726 6.6297 8.98336C6.07345 6.94898 6.15235 5.21148 6.86407 3.81773C7.47735 2.61773 8.54532 1.72711 9.95235 1.24351C11.3305 0.770074 12.9477 0.725543 14.3906 1.12164C15.9031 1.53726 17.0289 2.39351 17.4781 3.47007C17.693 3.98492 17.8805 4.49351 18.043 4.99742H19.0414C20.2524 4.99742 21.293 5.49586 22.0524 6.43961L22.6 7.12086C22.8203 7.39429 22.8859 7.74351 22.7805 8.07867C22.6758 8.41382 22.4227 8.66226 22.0852 8.76148L18.7992 9.72632C18.7961 10.5732 18.7211 11.4271 18.5727 12.2982C18.5719 12.306 18.5703 12.313 18.5688 12.3209C18.4805 12.7201 18.3688 13.1013 18.2367 13.4552C17.8672 14.4443 17.2297 15.2669 16.4156 15.8474C16.4695 15.8927 16.5141 15.9498 16.5445 16.0185L17.5117 18.2302L20.2445 19.1849C20.2844 19.199 20.3227 19.2185 20.357 19.2419L21.4438 19.9959V18.8396C21.4438 18.2349 21.9359 17.7427 22.5406 17.7427H38.9945C39.5992 17.7427 40.0914 18.2341 40.0914 18.8396ZM13.5524 14.4099C13.0727 14.4099 12.5734 14.2919 12.0945 14.0482C12.0397 14.0202 11.991 13.9817 11.9511 13.9349C11.9112 13.888 11.8809 13.8338 11.8619 13.7752C11.843 13.7167 11.8358 13.655 11.8407 13.5936C11.8456 13.5323 11.8626 13.4725 11.8906 13.4177C11.9185 13.3628 11.957 13.314 12.0038 13.274C12.0506 13.234 12.1048 13.2036 12.1634 13.1846C12.222 13.1656 12.2837 13.1583 12.3451 13.1632C12.4065 13.1681 12.4663 13.185 12.5211 13.213C13.4094 13.6662 14.3836 13.5107 14.8914 12.8357C15.0469 12.6287 15.3406 12.5873 15.5477 12.7427C15.7547 12.8982 15.7961 13.1919 15.6406 13.399C15.1438 14.0599 14.3781 14.4099 13.5524 14.4099Z" fill="#222124"/>
</svg>
